<svg width="25" height="23" viewBox="0 0 25 23" fill="none" xmlns="http://www.w3.org/2000/svg">
<path d="M5.04004 20.6191H17.8381" stroke="#17B126" stroke-width="1.42201" stroke-linecap="round" stroke-linejoin="round"/>
<path d="M11.4387 12.0865C13.0094 12.0865 14.2828 10.8132 14.2828 9.24245C14.2828 7.67175 13.0094 6.39844 11.4387 6.39844C9.86804 6.39844 8.59473 7.67175 8.59473 9.24245C8.59473 10.8132 9.86804 12.0865 11.4387 12.0865Z" stroke="#17B126" stroke-width="1.42201" stroke-linecap="round" stroke-linejoin="round"/>
<path d="M18.5482 9.24285C18.5482 15.6419 11.4382 20.6189 11.4382 20.6189C11.4382 20.6189 4.32812 15.6419 4.32812 9.24285C4.32812 7.35715 5.07722 5.54869 6.41061 4.2153C7.744 2.8819 9.55247 2.13281 11.4382 2.13281C13.3239 2.13281 15.1323 2.8819 16.4657 4.2153C17.7991 5.54869 18.5482 7.35715 18.5482 9.24285V9.24285Z" stroke="#17B126" stroke-width="1.42201" stroke-linecap="round" stroke-linejoin="round"/>
<path d="M19.5176 4.26562H23.7836" stroke="#17B126" stroke-width="1.42201" stroke-linecap="round" stroke-linejoin="round"/>
<path d="M21.6504 2.13281V6.39884" stroke="#17B126" stroke-width="1.42201" stroke-linecap="round" stroke-linejoin="round"/>
</svg>
