<svg width="339" height="263" viewBox="0 0 339 263" fill="none" xmlns="http://www.w3.org/2000/svg">
<g filter="url(#filter0_f_267_12213)">
<path d="M70.3748 258.304C12.8342 222.895 -16.2766 217.31 -23.6394 218.944C-44.5221 224.055 17.5492 264.216 35.6037 291.073C53.6582 317.93 134.328 337.253 167.922 338.741C201.516 340.228 196.76 297.416 138.689 249.196C80.6187 200.976 142.301 302.566 70.3748 258.304Z" fill="#0038FF"/>
<path d="M53.1786 244.512C74.3687 289.242 101.732 313.525 112.765 320.076C144.703 338.718 124.495 290.729 139.103 278.806C153.711 266.883 83.0752 200.107 44.8053 171.42C6.5354 142.732 -45.5562 141.08 -41.0247 184.548C-36.4931 228.015 26.6909 188.6 53.1786 244.512Z" fill="#00C8AA"/>
<path d="M63.0422 237.703C41.655 207.409 21.8372 193.317 14.6018 190.058C-6.26861 180.862 15.3697 213.737 10.5885 224.819C5.80728 235.9 57.9179 275.335 84.4055 291.101C110.893 306.866 138.234 300.37 125.761 268.548C113.288 236.726 89.7762 275.569 63.0422 237.703Z" fill="#00FFF0"/>
</g>
<defs>
<filter id="filter0_f_267_12213" x="-191.301" y="0.753326" width="530.174" height="488.025" filterUnits="userSpaceOnUse" color-interpolation-filters="sRGB">
<feFlood flood-opacity="0" result="BackgroundImageFix"/>
<feBlend mode="normal" in="SourceGraphic" in2="BackgroundImageFix" result="shape"/>
<feGaussianBlur stdDeviation="75" result="effect1_foregroundBlur_267_12213"/>
</filter>
</defs>
</svg>
