<svg width="109" height="109" viewBox="0 0 109 109" fill="none" xmlns="http://www.w3.org/2000/svg">
<path fill-rule="evenodd" clip-rule="evenodd" d="M0 0H6.8125V102.188H109V109H0V0ZM100.941 21.2073C101.287 21.4908 101.574 21.8397 101.786 22.2342C101.997 22.6287 102.129 23.0611 102.173 23.5065C102.218 23.9519 102.174 24.4017 102.044 24.8301C101.914 25.2585 101.702 25.6572 101.418 26.0033L70.7614 63.4721C70.4601 63.8398 70.0852 64.1405 69.6607 64.3546C69.2362 64.5687 68.7715 64.6916 68.2967 64.7154C67.8218 64.7391 67.3473 64.6632 66.9035 64.4924C66.4598 64.3217 66.0567 64.06 65.7202 63.7241L48.0962 46.1002L23.1898 80.3466C22.6449 81.0394 21.8527 81.4941 20.9797 81.615C20.1066 81.736 19.2207 81.5138 18.508 80.9952C17.7953 80.4765 17.3115 79.7019 17.158 78.8339C17.0046 77.966 17.1936 77.0724 17.6852 76.3409L44.9353 38.8721C45.2245 38.4737 45.5967 38.1427 46.0261 37.9019C46.4556 37.6612 46.9322 37.5164 47.423 37.4775C47.9138 37.4387 48.4072 37.5067 48.8692 37.6769C49.3312 37.8471 49.7508 38.1154 50.0991 38.4634L67.8729 56.244L96.1448 21.6842C96.4283 21.3378 96.7772 21.0506 97.1717 20.8391C97.5662 20.6277 97.9986 20.496 98.444 20.4517C98.8894 20.4075 99.3392 20.4514 99.7676 20.581C100.196 20.7107 100.595 20.9235 100.941 21.2073Z" fill="#5575E8"/>
</svg>
