<svg width="12" height="15" viewBox="0 0 12 15" fill="none" xmlns="http://www.w3.org/2000/svg">
<path d="M8.92334 10.4233C8.92334 10.1304 8.8501 9.86589 8.70361 9.62988C8.55713 9.38574 8.27637 9.16602 7.86133 8.9707C7.45443 8.77539 6.85221 8.59635 6.05469 8.43359C5.35482 8.27897 4.71191 8.09587 4.12598 7.88428C3.54818 7.66455 3.05176 7.40007 2.63672 7.09082C2.22168 6.78158 1.90023 6.41536 1.67236 5.99219C1.4445 5.56901 1.33057 5.08073 1.33057 4.52734C1.33057 3.99023 1.44857 3.48161 1.68457 3.00146C1.92057 2.52132 2.2583 2.09814 2.69775 1.73193C3.13721 1.36572 3.67025 1.07682 4.29688 0.865234C4.93164 0.653646 5.63965 0.547852 6.4209 0.547852C7.52767 0.547852 8.47575 0.735026 9.26514 1.10938C10.0627 1.47559 10.673 1.97607 11.0962 2.61084C11.5194 3.23747 11.731 3.94548 11.731 4.73486H8.78906C8.78906 4.38493 8.69954 4.05941 8.52051 3.7583C8.34961 3.44906 8.08919 3.20085 7.73926 3.01367C7.38932 2.81836 6.94987 2.7207 6.4209 2.7207C5.91634 2.7207 5.49723 2.80208 5.16357 2.96484C4.83805 3.11947 4.59391 3.32292 4.43115 3.5752C4.27653 3.82747 4.19922 4.10417 4.19922 4.40527C4.19922 4.625 4.23991 4.82438 4.32129 5.00342C4.41081 5.17432 4.55729 5.33301 4.76074 5.47949C4.96419 5.61784 5.24089 5.74805 5.59082 5.87012C5.94889 5.99219 6.39648 6.11019 6.93359 6.22412C7.94271 6.43571 8.80941 6.70833 9.53369 7.04199C10.2661 7.36751 10.8276 7.79069 11.2183 8.31152C11.6089 8.82422 11.8042 9.47526 11.8042 10.2646C11.8042 10.8506 11.6781 11.3877 11.4258 11.876C11.1816 12.3561 10.8236 12.7752 10.3516 13.1333C9.87956 13.4832 9.31396 13.7559 8.65479 13.9512C8.00374 14.1465 7.27132 14.2441 6.45752 14.2441C5.26123 14.2441 4.24805 14.0326 3.41797 13.6094C2.58789 13.1781 1.95719 12.6287 1.52588 11.9614C1.1027 11.286 0.891113 10.5861 0.891113 9.86182H3.73535C3.7679 10.4071 3.91846 10.8424 4.18701 11.168C4.4637 11.4854 4.8055 11.7173 5.2124 11.8638C5.62744 12.0021 6.05469 12.0713 6.49414 12.0713C7.02311 12.0713 7.46663 12.0021 7.82471 11.8638C8.18278 11.7173 8.4554 11.522 8.64258 11.2778C8.82975 11.0256 8.92334 10.7407 8.92334 10.4233Z" fill="#393939"/>
<path d="M0 7.75H12.8662V8.99512H0V7.75Z" fill="#393939"/>
</svg>
