<svg width="30" height="30" viewBox="0 0 30 30" fill="none" xmlns="http://www.w3.org/2000/svg">
<path d="M11.9137 10.3125H7.5C6.00816 10.3125 4.57742 10.9051 3.52252 11.96C2.46763 13.0149 1.875 14.4457 1.875 15.9375C1.875 17.4293 2.46763 18.8601 3.52252 19.915C4.57742 20.9699 6.00816 21.5625 7.5 21.5625H13.125C14.0251 21.563 14.9122 21.3474 15.7118 20.9339C16.5114 20.5205 17.2 19.9211 17.7199 19.1863C18.2398 18.4515 18.5757 17.6026 18.6995 16.711C18.8233 15.8194 18.7313 14.9112 18.4312 14.0625H16.875C16.7137 14.0625 16.5562 14.0812 16.4062 14.1206C16.7225 14.6916 16.8842 15.3352 16.8754 15.9878C16.8667 16.6404 16.6878 17.2794 16.3564 17.8417C16.0249 18.4039 15.5525 18.87 14.9858 19.1937C14.4191 19.5174 13.7777 19.6876 13.125 19.6875H7.5C6.50544 19.6875 5.55161 19.2924 4.84835 18.5891C4.14509 17.8859 3.75 16.9321 3.75 15.9375C3.75 14.9429 4.14509 13.9891 4.84835 13.2858C5.55161 12.5826 6.50544 12.1875 7.5 12.1875H10.3781C10.7869 11.4825 11.3062 10.8487 11.9156 10.3125H11.9137Z" fill="#393939"/>
<path d="M16.874 10.3125C15.9739 10.312 15.0868 10.5276 14.2872 10.9411C13.4877 11.3545 12.799 11.9539 12.2792 12.6887C11.7593 13.4235 11.4233 14.2724 11.2995 15.164C11.1758 16.0556 11.2677 16.9638 11.5678 17.8125H13.6265C13.2974 17.2424 13.1241 16.5958 13.1241 15.9375C13.1241 15.2793 13.2974 14.6326 13.6265 14.0625C13.9556 13.4925 14.429 13.0191 14.9991 12.6899C15.5691 12.3608 16.2158 12.1875 16.874 12.1875H22.499C23.4936 12.1875 24.4474 12.5826 25.1507 13.2859C25.854 13.9891 26.249 14.9429 26.249 15.9375C26.249 16.9321 25.854 17.8859 25.1507 18.5892C24.4474 19.2924 23.4936 19.6875 22.499 19.6875H19.6209C19.213 20.3914 18.6937 21.0246 18.0834 21.5625H22.499C23.2377 21.5625 23.9692 21.417 24.6516 21.1343C25.3341 20.8516 25.9542 20.4373 26.4765 19.915C26.9988 19.3926 27.4132 18.7726 27.6959 18.0901C27.9785 17.4076 28.124 16.6762 28.124 15.9375C28.124 15.1988 27.9785 14.4674 27.6959 13.7849C27.4132 13.1024 26.9988 12.4824 26.4765 11.96C25.9542 11.4377 25.3341 11.0234 24.6516 10.7407C23.9692 10.458 23.2377 10.3125 22.499 10.3125H16.874Z" fill="#393939"/>
</svg>
