<svg width="14" height="18" viewBox="0 0 14 18" fill="none" xmlns="http://www.w3.org/2000/svg">
<path d="M7.54492 10.1997H2.97949L2.95508 7.68506H6.78809C7.46354 7.68506 8.01693 7.59961 8.44824 7.42871C8.87956 7.24967 9.20101 6.99333 9.4126 6.65967C9.63232 6.31787 9.74219 5.90283 9.74219 5.41455C9.74219 4.86117 9.63639 4.41357 9.4248 4.07178C9.22135 3.72998 8.8999 3.48177 8.46045 3.32715C8.02913 3.17253 7.47168 3.09521 6.78809 3.09521H4.24902V18H0.586914V0.226562H6.78809C7.82161 0.226562 8.74528 0.324219 9.55908 0.519531C10.381 0.714844 11.0768 1.01188 11.6465 1.41064C12.2161 1.80941 12.6515 2.31396 12.9526 2.92432C13.2537 3.52653 13.4043 4.24268 13.4043 5.07275C13.4043 5.80518 13.2375 6.48063 12.9038 7.09912C12.5783 7.71761 12.0615 8.22217 11.3535 8.61279C10.6536 9.00342 9.73812 9.21908 8.60693 9.25977L7.54492 10.1997ZM7.38623 18H1.97852L3.40674 15.1436H7.38623C8.02913 15.1436 8.55404 15.0418 8.96094 14.8384C9.36784 14.6268 9.66895 14.342 9.86426 13.9839C10.0596 13.6258 10.1572 13.2148 10.1572 12.751C10.1572 12.2301 10.0677 11.7785 9.88867 11.396C9.71777 11.0135 9.44108 10.7205 9.05859 10.5171C8.67611 10.3055 8.17155 10.1997 7.54492 10.1997H4.01709L4.0415 7.68506H8.43604L9.27832 8.67383C10.3607 8.65755 11.2314 8.8488 11.8906 9.24756C12.5579 9.63818 13.0422 10.1468 13.3433 10.7734C13.6525 11.4001 13.8071 12.0715 13.8071 12.7876C13.8071 13.9269 13.5589 14.8872 13.0625 15.6685C12.5661 16.4416 11.8377 17.0234 10.8774 17.4141C9.92529 17.8047 8.76156 18 7.38623 18Z" fill="#393939"/>
</svg>
