<svg width="6" height="19" viewBox="0 0 6 19" fill="none" xmlns="http://www.w3.org/2000/svg">
<path d="M5.07812 5.79199L2.7832 19H0.57373L2.86865 5.79199H5.07812ZM3.30811 2.3252C3.30811 1.94271 3.42611 1.62533 3.66211 1.37305C3.90625 1.11263 4.21956 0.978353 4.60205 0.970215C4.98454 0.962077 5.29785 1.08008 5.54199 1.32422C5.79427 1.56836 5.91634 1.8776 5.9082 2.25195C5.9082 2.6263 5.78206 2.93962 5.52979 3.19189C5.28564 3.43604 4.9764 3.56217 4.60205 3.57031C4.2277 3.57845 3.91846 3.46859 3.67432 3.24072C3.43018 3.00472 3.30811 2.69954 3.30811 2.3252Z" fill="#393939"/>
</svg>
