<svg width="107" height="15" viewBox="0 0 107 15" fill="none" xmlns="http://www.w3.org/2000/svg">
<path d="M106 8.5C106.552 8.5 107 8.05228 107 7.5C107 6.94772 106.552 6.5 106 6.5V8.5ZM0.792893 6.79289C0.402369 7.18342 0.402369 7.81658 0.792893 8.20711L7.15685 14.5711C7.54738 14.9616 8.18054 14.9616 8.57107 14.5711C8.96159 14.1805 8.96159 13.5474 8.57107 13.1569L2.91421 7.5L8.57107 1.84315C8.96159 1.45262 8.96159 0.819457 8.57107 0.428932C8.18054 0.0384078 7.54738 0.0384078 7.15685 0.428932L0.792893 6.79289ZM106 6.5H1.5V8.5H106V6.5Z" fill="url(#paint0_linear_12_788)"/>
<defs>
<linearGradient id="paint0_linear_12_788" x1="106.672" y1="7.45467" x2="1.0369" y2="7.45466" gradientUnits="userSpaceOnUse">
<stop stop-color="#0038FF"/>
<stop offset="0.473958" stop-color="#681DFF"/>
<stop offset="1" stop-color="#DB00FF"/>
</linearGradient>
</defs>
</svg>
