<svg width="24" height="34" viewBox="0 0 24 34" fill="none" xmlns="http://www.w3.org/2000/svg">
<path d="M1.60924 0.207017C1.17129 -0.129459 0.543492 -0.0471959 0.207017 0.390757C-0.129459 0.828709 -0.0471959 1.45651 0.390757 1.79298L1.60924 0.207017ZM21.5 16.75L22.1092 17.543L23.1414 16.75L22.1092 15.957L21.5 16.75ZM0.390757 31.707C-0.0471959 32.0435 -0.129459 32.6713 0.207017 33.1092C0.543492 33.5472 1.17129 33.6295 1.60924 33.293L0.390757 31.707ZM0.390757 1.79298L20.8908 17.543L22.1092 15.957L1.60924 0.207017L0.390757 1.79298ZM20.8908 15.957L0.390757 31.707L1.60924 33.293L22.1092 17.543L20.8908 15.957Z" fill="#161616"/>
</svg>
