<svg width="22" height="22" viewBox="0 0 22 22" fill="none" xmlns="http://www.w3.org/2000/svg">
<path d="M15.8593 9.62513H21.2658C21.3311 9.62515 21.395 9.64378 21.4501 9.67884C21.5052 9.7139 21.5492 9.76394 21.5769 9.82309C21.6046 9.88225 21.6149 9.94807 21.6066 10.0128C21.5982 10.0776 21.5716 10.1387 21.5298 10.1889L18.8265 13.4339C18.7942 13.4726 18.7539 13.5037 18.7083 13.525C18.6626 13.5464 18.6129 13.5575 18.5625 13.5575C18.5121 13.5575 18.4624 13.5464 18.4168 13.525C18.3711 13.5037 18.3308 13.4726 18.2985 13.4339L15.5953 10.1889C15.5534 10.1387 15.5268 10.0776 15.5185 10.0128C15.5101 9.94807 15.5204 9.88225 15.5481 9.82309C15.5758 9.76394 15.6198 9.7139 15.6749 9.67884C15.73 9.64378 15.7939 9.62515 15.8593 9.62513ZM0.734246 12.3751H6.14075C6.20607 12.3751 6.27002 12.3565 6.32513 12.3214C6.38025 12.2863 6.42423 12.2363 6.45193 12.1772C6.47963 12.118 6.4899 12.0522 6.48155 11.9874C6.47319 11.9226 6.44655 11.8616 6.40475 11.8114L3.7015 8.56638C3.66924 8.52769 3.62887 8.49657 3.58325 8.47521C3.53763 8.45385 3.48787 8.44278 3.4375 8.44278C3.38713 8.44278 3.33737 8.45385 3.29175 8.47521C3.24613 8.49657 3.20576 8.52769 3.1735 8.56638L0.470246 11.8114C0.428443 11.8616 0.401804 11.9226 0.393449 11.9874C0.385094 12.0522 0.395368 12.118 0.423069 12.1772C0.45077 12.2363 0.49475 12.2863 0.54986 12.3214C0.604971 12.3565 0.668929 12.3751 0.734246 12.3751Z" fill="black"/>
<path fill-rule="evenodd" clip-rule="evenodd" d="M10.9992 4.12502C8.86516 4.12502 6.95666 5.09714 5.69578 6.62477C5.63948 6.69774 5.56908 6.75865 5.48876 6.80387C5.40845 6.84909 5.31986 6.8777 5.22827 6.888C5.13667 6.8983 5.04395 6.89008 4.95559 6.86382C4.86724 6.83756 4.78507 6.7938 4.71397 6.73515C4.64287 6.6765 4.58429 6.60415 4.54171 6.5224C4.49913 6.44066 4.47343 6.35118 4.46612 6.2593C4.45881 6.16742 4.47006 6.07501 4.49918 5.98756C4.52831 5.90012 4.57472 5.81942 4.63566 5.75027C5.64242 4.53137 6.97809 3.62728 8.48382 3.14554C9.98955 2.6638 11.602 2.62468 13.1293 3.03284C14.6566 3.44099 16.0345 4.27924 17.0992 5.44788C18.1639 6.61653 18.8705 8.06639 19.135 9.62502H17.7367C17.4192 8.07238 16.5753 6.67701 15.3476 5.67484C14.12 4.67267 12.5839 4.12521 10.9992 4.12502ZM4.26166 12.375C4.52196 13.6464 5.13664 14.8181 6.03469 15.755C6.93274 16.6918 8.0775 17.3554 9.33673 17.6692C10.596 17.9829 11.9183 17.934 13.1509 17.5281C14.3835 17.1222 15.4761 16.3758 16.3025 15.3753C16.3588 15.3023 16.4292 15.2414 16.5096 15.1962C16.5899 15.1509 16.6785 15.1223 16.77 15.112C16.8616 15.1017 16.9544 15.11 17.0427 15.1362C17.1311 15.1625 17.2132 15.2062 17.2843 15.2649C17.3554 15.3235 17.414 15.3959 17.4566 15.4776C17.4992 15.5594 17.5249 15.6488 17.5322 15.7407C17.5395 15.8326 17.5283 15.925 17.4991 16.0125C17.47 16.0999 17.4236 16.1806 17.3627 16.2498C16.3559 17.4687 15.0202 18.3728 13.5145 18.8545C12.0088 19.3362 10.3964 19.3754 8.86904 18.9672C7.34172 18.559 5.96378 17.7208 4.89909 16.5521C3.83441 15.3835 3.12779 13.9336 2.86328 12.375H4.26166Z" fill="black"/>
</svg>
