<svg width="34" height="34" viewBox="0 0 34 34" fill="none" xmlns="http://www.w3.org/2000/svg">
<g clip-path="url(#clip0_121_5505)">
<path d="M17 31.875C13.0549 31.875 9.27139 30.3078 6.48179 27.5182C3.69218 24.7286 2.125 20.9451 2.125 17C2.125 13.0549 3.69218 9.27139 6.48179 6.48179C9.27139 3.69218 13.0549 2.125 17 2.125C20.9451 2.125 24.7286 3.69218 27.5182 6.48179C30.3078 9.27139 31.875 13.0549 31.875 17C31.875 20.9451 30.3078 24.7286 27.5182 27.5182C24.7286 30.3078 20.9451 31.875 17 31.875ZM17 34C21.5087 34 25.8327 32.2089 29.0208 29.0208C32.2089 25.8327 34 21.5087 34 17C34 12.4913 32.2089 8.1673 29.0208 4.97919C25.8327 1.79107 21.5087 0 17 0C12.4913 0 8.1673 1.79107 4.97919 4.97919C1.79107 8.1673 0 12.4913 0 17C0 21.5087 1.79107 25.8327 4.97919 29.0208C8.1673 32.2089 12.4913 34 17 34Z" fill="#393939"/>
<path d="M17.0002 8.5C17.282 8.5 17.5522 8.61194 17.7515 8.8112C17.9507 9.01046 18.0627 9.28071 18.0627 9.5625V15.9375H24.4377C24.7195 15.9375 24.9897 16.0494 25.189 16.2487C25.3882 16.448 25.5002 16.7182 25.5002 17C25.5002 17.2818 25.3882 17.552 25.189 17.7513C24.9897 17.9506 24.7195 18.0625 24.4377 18.0625H18.0627V24.4375C18.0627 24.7193 17.9507 24.9895 17.7515 25.1888C17.5522 25.3881 17.282 25.5 17.0002 25.5C16.7184 25.5 16.4481 25.3881 16.2489 25.1888C16.0496 24.9895 15.9377 24.7193 15.9377 24.4375V18.0625H9.56268C9.28089 18.0625 9.01064 17.9506 8.81138 17.7513C8.61212 17.552 8.50018 17.2818 8.50018 17C8.50018 16.7182 8.61212 16.448 8.81138 16.2487C9.01064 16.0494 9.28089 15.9375 9.56268 15.9375H15.9377V9.5625C15.9377 9.28071 16.0496 9.01046 16.2489 8.8112C16.4481 8.61194 16.7184 8.5 17.0002 8.5Z" fill="#393939"/>
</g>
<defs>
<clipPath id="clip0_121_5505">
<rect width="34" height="34" fill="white"/>
</clipPath>
</defs>
</svg>
