<svg width="22" height="22" viewBox="0 0 22 22" fill="none" xmlns="http://www.w3.org/2000/svg">
<g clip-path="url(#clip0_1059_12019)">
<path d="M8.25 11C9.34402 11 10.3932 10.5654 11.1668 9.79182C11.9404 9.01823 12.375 7.96902 12.375 6.875C12.375 5.78098 11.9404 4.73177 11.1668 3.95818C10.3932 3.1846 9.34402 2.75 8.25 2.75C7.15598 2.75 6.10677 3.1846 5.33318 3.95818C4.5596 4.73177 4.125 5.78098 4.125 6.875C4.125 7.96902 4.5596 9.01823 5.33318 9.79182C6.10677 10.5654 7.15598 11 8.25 11ZM11 6.875C11 7.60435 10.7103 8.30382 10.1945 8.81954C9.67882 9.33527 8.97935 9.625 8.25 9.625C7.52065 9.625 6.82118 9.33527 6.30546 8.81954C5.78973 8.30382 5.5 7.60435 5.5 6.875C5.5 6.14565 5.78973 5.44618 6.30546 4.93046C6.82118 4.41473 7.52065 4.125 8.25 4.125C8.97935 4.125 9.67882 4.41473 10.1945 4.93046C10.7103 5.44618 11 6.14565 11 6.875ZM16.5 17.875C16.5 19.25 15.125 19.25 15.125 19.25H1.375C1.375 19.25 0 19.25 0 17.875C0 16.5 1.375 12.375 8.25 12.375C15.125 12.375 16.5 16.5 16.5 17.875ZM15.125 17.8695C15.1236 17.5312 14.9132 16.5138 13.981 15.5815C13.0845 14.685 11.3974 13.75 8.25 13.75C5.10125 13.75 3.4155 14.685 2.519 15.5815C1.58675 16.5138 1.37775 17.5312 1.375 17.8695H15.125Z" fill="black"/>
<path fill-rule="evenodd" clip-rule="evenodd" d="M16.702 7.07576C16.7658 7.01173 16.8417 6.96094 16.9252 6.92628C17.0088 6.89162 17.0983 6.87378 17.1887 6.87378C17.2792 6.87378 17.3687 6.89162 17.4522 6.92628C17.5357 6.96094 17.6116 7.01173 17.6755 7.07576L19.2512 8.65288L20.827 7.07576C20.9561 6.94666 21.1312 6.87414 21.3137 6.87414C21.4963 6.87414 21.6714 6.94666 21.8005 7.07576C21.9296 7.20485 22.0021 7.37994 22.0021 7.56251C22.0021 7.74507 21.9296 7.92016 21.8005 8.04926L20.2234 9.62501L21.8005 11.2008C21.9296 11.3299 22.0021 11.5049 22.0021 11.6875C22.0021 11.8701 21.9296 12.0452 21.8005 12.1743C21.6714 12.3034 21.4963 12.3759 21.3137 12.3759C21.1312 12.3759 20.9561 12.3034 20.827 12.1743L19.2512 10.5971L17.6755 12.1743C17.5464 12.3034 17.3713 12.3759 17.1887 12.3759C17.0062 12.3759 16.8311 12.3034 16.702 12.1743C16.5729 12.0452 16.5004 11.8701 16.5004 11.6875C16.5004 11.5049 16.5729 11.3299 16.702 11.2008L18.2791 9.62501L16.702 8.04926C16.638 7.9854 16.5872 7.90953 16.5525 7.826C16.5178 7.74248 16.5 7.65294 16.5 7.56251C16.5 7.47208 16.5178 7.38254 16.5525 7.29901C16.5872 7.21549 16.638 7.13962 16.702 7.07576Z" fill="black"/>
</g>
<defs>
<clipPath id="clip0_1059_12019">
<rect width="22" height="22" fill="white"/>
</clipPath>
</defs>
</svg>
