<svg width="34" height="34" viewBox="0 0 34 34" fill="none" xmlns="http://www.w3.org/2000/svg">
<path d="M17.0003 10.1025C16.0945 10.1025 15.1975 10.281 14.3606 10.6276C13.5238 10.9742 12.7634 11.4823 12.1228 12.1228C11.4823 12.7634 10.9742 13.5238 10.6276 14.3606C10.281 15.1975 10.1025 16.0945 10.1025 17.0003C10.1025 17.9061 10.281 18.8031 10.6276 19.6399C10.9742 20.4768 11.4823 21.2372 12.1228 21.8777C12.7634 22.5182 13.5238 23.0263 14.3606 23.373C15.1975 23.7196 16.0945 23.898 17.0003 23.898C18.8297 23.898 20.5842 23.1713 21.8777 21.8777C23.1713 20.5842 23.898 18.8297 23.898 17.0003C23.898 15.1709 23.1713 13.4164 21.8777 12.1228C20.5842 10.8293 18.8297 10.1025 17.0003 10.1025ZM12.2275 17.0003C12.2275 15.7345 12.7304 14.5205 13.6254 13.6254C14.5205 12.7304 15.7345 12.2275 17.0003 12.2275C18.2661 12.2275 19.4801 12.7304 20.3751 13.6254C21.2702 14.5205 21.773 15.7345 21.773 17.0003C21.773 18.2661 21.2702 19.4801 20.3751 20.3751C19.4801 21.2702 18.2661 21.773 17.0003 21.773C15.7345 21.773 14.5205 21.2702 13.6254 20.3751C12.7304 19.4801 12.2275 18.2661 12.2275 17.0003Z" fill="#393939"/>
<path d="M20.8164 2.85379C19.6965 -0.949961 14.3033 -0.949961 13.1834 2.85379L12.9837 3.53166C12.9055 3.79719 12.7688 4.04184 12.5838 4.2477C12.3987 4.45356 12.17 4.61539 11.9142 4.72135C11.6585 4.8273 11.3823 4.87469 11.1059 4.86004C10.8295 4.84538 10.5599 4.76906 10.3168 4.63666L9.69629 4.29666C6.21129 2.40116 2.40116 6.21341 4.29879 9.69629L4.63666 10.3168C4.76906 10.5599 4.84538 10.8295 4.86004 11.1059C4.87469 11.3823 4.8273 11.6585 4.72135 11.9142C4.61539 12.17 4.45356 12.3987 4.2477 12.5838C4.04184 12.7688 3.79719 12.9055 3.53166 12.9837L2.85379 13.1834C-0.949961 14.3033 -0.949961 19.6965 2.85379 20.8164L3.53166 21.0162C3.79719 21.0944 4.04184 21.231 4.2477 21.416C4.45356 21.6011 4.61539 21.8299 4.72135 22.0856C4.8273 22.3413 4.87469 22.6175 4.86004 22.8939C4.84538 23.1703 4.76906 23.44 4.63666 23.683L4.29666 24.3035C2.40116 27.7885 6.21129 31.6008 9.69629 29.701L10.3168 29.3632C10.5599 29.2308 10.8295 29.1544 11.1059 29.1398C11.3823 29.1251 11.6585 29.1725 11.9142 29.2785C12.17 29.3844 12.3987 29.5463 12.5838 29.7521C12.7688 29.958 12.9055 30.2026 12.9837 30.4682L13.1834 31.146C14.3033 34.9498 19.6965 34.9498 20.8164 31.146L21.0162 30.4682C21.0944 30.2026 21.231 29.958 21.416 29.7521C21.6011 29.5463 21.8299 29.3844 22.0856 29.2785C22.3413 29.1725 22.6175 29.1251 22.8939 29.1398C23.1703 29.1544 23.44 29.2308 23.683 29.3632L24.3035 29.7032C27.7885 31.6008 31.6008 27.7864 29.701 24.3035L29.3632 23.683C29.2308 23.44 29.1544 23.1703 29.1398 22.8939C29.1251 22.6175 29.1725 22.3413 29.2785 22.0856C29.3844 21.8299 29.5463 21.6011 29.7521 21.416C29.958 21.231 30.2026 21.0944 30.4682 21.0162L31.146 20.8164C34.9498 19.6965 34.9498 14.3033 31.146 13.1834L30.4682 12.9837C30.2026 12.9055 29.958 12.7688 29.7521 12.5838C29.5463 12.3987 29.3844 12.17 29.2785 11.9142C29.1725 11.6585 29.1251 11.3823 29.1398 11.1059C29.1544 10.8295 29.2308 10.5599 29.3632 10.3168L29.7032 9.69629C31.6008 6.21129 27.7864 2.40116 24.3035 4.29879L23.683 4.63666C23.44 4.76906 23.1703 4.84538 22.8939 4.86004C22.6175 4.87469 22.3413 4.8273 22.0856 4.72135C21.8299 4.61539 21.6011 4.45356 21.416 4.2477C21.231 4.04184 21.0944 3.79719 21.0162 3.53166L20.8164 2.85379ZM15.2213 3.45516C15.744 1.68079 18.2558 1.68079 18.7785 3.45516L18.9783 4.13304C19.1462 4.70272 19.4395 5.2276 19.8366 5.6692C20.2338 6.1108 20.7247 6.45792 21.2734 6.68512C21.8222 6.91232 22.4148 7.01383 23.0079 6.98222C23.601 6.9506 24.1794 6.78666 24.7009 6.50241L25.3193 6.16241C26.9428 5.28054 28.7193 7.05491 27.8353 8.68054L27.4974 9.30104C27.2136 9.82257 27.0501 10.401 27.0188 10.9939C26.9875 11.5869 27.0893 12.1793 27.3167 12.7278C27.5441 13.2763 27.8913 13.7669 28.3329 14.1638C28.7745 14.5607 29.2993 14.8538 29.8689 15.0215L30.5447 15.2213C32.319 15.744 32.319 18.2558 30.5447 18.7785L29.8668 18.9783C29.2971 19.1462 28.7722 19.4395 28.3306 19.8366C27.889 20.2338 27.5419 20.7247 27.3147 21.2734C27.0875 21.8222 26.986 22.4148 27.0176 23.0079C27.0492 23.601 27.2132 24.1794 27.4974 24.7009L27.8374 25.3193C28.7193 26.9428 26.9449 28.7193 25.3193 27.8353L24.7009 27.4974C24.1793 27.2132 23.6007 27.0493 23.0075 27.0178C22.4143 26.9864 21.8216 27.0881 21.2728 27.3155C20.7241 27.5429 20.2331 27.8903 19.8361 28.3321C19.4391 28.7739 19.146 29.299 18.9783 29.8689L18.7785 30.5447C18.2558 32.319 15.744 32.319 15.2213 30.5447L15.0215 29.8668C14.8535 29.2974 14.5603 28.7728 14.1633 28.3314C13.7663 27.89 13.2756 27.5431 12.7272 27.3159C12.1787 27.0887 11.5864 26.9871 10.9935 27.0185C10.4007 27.0499 9.82243 27.2136 9.30104 27.4974L8.68054 27.8374C7.05704 28.7193 5.28054 26.9449 6.16454 25.3193L6.50241 24.7009C6.78706 24.1793 6.95132 23.6007 6.98314 23.0074C7.01497 22.414 6.91354 21.8211 6.68632 21.2721C6.45909 20.7231 6.11183 20.2319 5.67 19.8346C5.22818 19.4373 4.70302 19.144 4.13304 18.9762L3.45516 18.7764C1.68079 18.2537 1.68079 15.7419 3.45516 15.2192L4.13304 15.0194C4.70213 14.8513 5.22643 14.5582 5.66759 14.1613C6.10875 13.7645 6.45559 13.274 6.68273 12.7258C6.90987 12.1776 7.01156 11.5856 6.98036 10.993C6.94916 10.4004 6.78586 9.82235 6.50241 9.30104L6.16241 8.68054C5.28054 7.05704 7.05491 5.28054 8.68054 6.16454L9.30104 6.50241C9.82243 6.78626 10.4007 6.94988 10.9935 6.98129C11.5864 7.01269 12.1787 6.91109 12.7272 6.68392C13.2756 6.45675 13.7663 6.10977 14.1633 5.66839C14.5603 5.22702 14.8535 4.70242 15.0215 4.13304L15.2213 3.45516Z" fill="#393939"/>
</svg>
