<svg width="34" height="32" viewBox="0 0 34 32" fill="none" xmlns="http://www.w3.org/2000/svg">
<path d="M16.9998 5.8396L15.4762 4.27348C11.8998 0.597228 5.34203 1.86585 2.97478 6.48773C1.8634 8.6616 1.61265 11.8002 3.64203 15.8059C5.59703 19.6627 9.66428 24.2825 16.9998 29.3145C24.3353 24.2825 28.4004 19.6627 30.3575 15.8059C32.3869 11.7981 32.1383 8.6616 31.0248 6.48773C28.6575 1.86585 22.0998 0.595103 18.5234 4.27135L16.9998 5.8396ZM16.9998 31.8751C-15.5828 10.3446 6.96765 -6.4599 16.6258 2.42898C16.7533 2.54585 16.8787 2.66698 16.9998 2.79235C17.1197 2.66709 17.2444 2.54658 17.3738 2.4311C27.0298 -6.46415 49.5824 10.3425 16.9998 31.8751Z" fill="#393939"/>
</svg>
