<svg width="25" height="25" viewBox="0 0 25 25" fill="none" xmlns="http://www.w3.org/2000/svg">
<path d="M18.3483 16.1625C19.8612 14.098 20.5389 11.5383 20.2456 8.99558C19.9524 6.45286 18.7099 4.11463 16.7667 2.44868C14.8235 0.782724 12.3229 -0.0880845 9.76521 0.0104673C7.20753 0.109019 4.78138 1.16966 2.97213 2.9802C1.16289 4.79074 0.103982 7.21765 0.00726021 9.7754C-0.0894614 12.3331 0.783136 14.8331 2.45048 16.7751C4.11782 18.7171 6.45694 19.958 8.99987 20.2494C11.5428 20.5408 14.102 19.8613 16.1655 18.3469H16.1639C16.2108 18.4094 16.2608 18.4688 16.317 18.5266L22.3326 24.5422C22.6256 24.8354 23.0231 25.0002 23.4376 25.0003C23.852 25.0005 24.2496 24.836 24.5428 24.543C24.836 24.25 25.0008 23.8526 25.0009 23.4381C25.0011 23.0236 24.8366 22.626 24.5436 22.3328L18.528 16.3172C18.4721 16.2607 18.412 16.2084 18.3483 16.161V16.1625ZM18.7514 10.1563C18.7514 11.2848 18.5291 12.4023 18.0972 13.445C17.6654 14.4876 17.0324 15.435 16.2343 16.233C15.4363 17.031 14.489 17.664 13.4463 18.0959C12.4037 18.5278 11.2862 18.75 10.1577 18.75C9.0291 18.75 7.91161 18.5278 6.86897 18.0959C5.82632 17.664 4.87896 17.031 4.08095 16.233C3.28295 15.435 2.64994 14.4876 2.21806 13.445C1.78619 12.4023 1.5639 11.2848 1.5639 10.1563C1.5639 7.87708 2.46931 5.69123 4.08095 4.07959C5.69259 2.46795 7.87845 1.56254 10.1577 1.56254C12.4369 1.56254 14.6227 2.46795 16.2343 4.07959C17.846 5.69123 18.7514 7.87708 18.7514 10.1563Z" fill="#161616"/>
</svg>
