<svg width="34" height="34" viewBox="0 0 34 34" fill="none" xmlns="http://www.w3.org/2000/svg">
<g clip-path="url(#clip0_121_5447)">
<path d="M4.25 4.25C3.12283 4.25 2.04183 4.69777 1.2448 5.4948C0.447767 6.29183 0 7.37283 0 8.5L0 25.5212C0.00561749 26.6447 0.455863 27.7203 1.25228 28.5127C2.04871 29.3052 3.1265 29.75 4.25 29.75H15.9375C16.2193 29.75 16.4895 29.6381 16.6888 29.4388C16.8881 29.2395 17 28.9693 17 28.6875C17 28.4057 16.8881 28.1355 16.6888 27.9362C16.4895 27.7369 16.2193 27.625 15.9375 27.625H4.25C3.78224 27.6251 3.32753 27.4708 2.95638 27.1861C2.58524 26.9014 2.3184 26.5022 2.19725 26.0504L14.1822 18.6745L17 20.3639L31.875 11.4389V18.0625C31.875 18.3443 31.9869 18.6145 32.1862 18.8138C32.3855 19.0131 32.6557 19.125 32.9375 19.125C33.2193 19.125 33.4895 19.0131 33.6888 18.8138C33.8881 18.6145 34 18.3443 34 18.0625V8.5C34 7.37283 33.5522 6.29183 32.7552 5.4948C31.9582 4.69777 30.8772 4.25 29.75 4.25H4.25ZM12.1295 17.442L2.125 23.5981V11.4389L12.1295 17.442ZM2.125 8.96112V8.5C2.125 7.93641 2.34888 7.39591 2.7474 6.9974C3.14591 6.59888 3.68641 6.375 4.25 6.375H29.75C30.3136 6.375 30.8541 6.59888 31.2526 6.9974C31.6511 7.39591 31.875 7.93641 31.875 8.5V8.96112L17 17.8861L2.125 8.96112Z" fill="#393939"/>
<path d="M34 26.5625C34 28.535 33.2164 30.4268 31.8216 31.8216C30.4268 33.2164 28.535 34 26.5625 34C24.59 34 22.6982 33.2164 21.3034 31.8216C19.9086 30.4268 19.125 28.535 19.125 26.5625C19.125 24.59 19.9086 22.6982 21.3034 21.3034C22.6982 19.9086 24.59 19.125 26.5625 19.125C28.535 19.125 30.4268 19.9086 31.8216 21.3034C33.2164 22.6982 34 24.59 34 26.5625ZM26.5625 22.3125C26.2807 22.3125 26.0105 22.4244 25.8112 22.6237C25.6119 22.823 25.5 23.0932 25.5 23.375V25.5H23.375C23.0932 25.5 22.823 25.6119 22.6237 25.8112C22.4244 26.0105 22.3125 26.2807 22.3125 26.5625C22.3125 26.8443 22.4244 27.1145 22.6237 27.3138C22.823 27.5131 23.0932 27.625 23.375 27.625H25.5V29.75C25.5 30.0318 25.6119 30.302 25.8112 30.5013C26.0105 30.7006 26.2807 30.8125 26.5625 30.8125C26.8443 30.8125 27.1145 30.7006 27.3138 30.5013C27.5131 30.302 27.625 30.0318 27.625 29.75V27.625H29.75C30.0318 27.625 30.302 27.5131 30.5013 27.3138C30.7006 27.1145 30.8125 26.8443 30.8125 26.5625C30.8125 26.2807 30.7006 26.0105 30.5013 25.8112C30.302 25.6119 30.0318 25.5 29.75 25.5H27.625V23.375C27.625 23.0932 27.5131 22.823 27.3138 22.6237C27.1145 22.4244 26.8443 22.3125 26.5625 22.3125Z" fill="#393939"/>
</g>
<defs>
<clipPath id="clip0_121_5447">
<rect width="34" height="34" fill="white"/>
</clipPath>
</defs>
</svg>
