<svg width="24" height="34" viewBox="0 0 24 34" fill="none" xmlns="http://www.w3.org/2000/svg">
<path d="M18.9083 0.144462C19.1163 0.265031 19.2772 0.452566 19.3648 0.67643C19.4525 0.900293 19.4616 1.14725 19.3907 1.37696L15.5636 13.8125H22.6249C22.8325 13.8124 23.0355 13.8731 23.2089 13.987C23.3823 14.101 23.5185 14.2633 23.6008 14.4538C23.6831 14.6443 23.7077 14.8547 23.6718 15.0591C23.6358 15.2635 23.5408 15.4528 23.3984 15.6038L6.39844 33.6663C6.23395 33.8413 6.01506 33.9553 5.77746 33.9899C5.53985 34.0245 5.29754 33.9775 5.09001 33.8568C4.88248 33.736 4.72198 33.5485 4.63467 33.3248C4.54735 33.1012 4.53837 32.8545 4.60919 32.6251L8.43631 20.1875H1.37494C1.16742 20.1875 0.96442 20.1269 0.790998 20.0129C0.617577 19.8989 0.481324 19.7367 0.399061 19.5462C0.316798 19.3556 0.292126 19.1452 0.32809 18.9408C0.364054 18.7364 0.459079 18.5471 0.601436 18.3961L17.6014 0.333587C17.7657 0.15891 17.9843 0.0449454 18.2215 0.0102228C18.4588 -0.0244998 18.7009 0.0220619 18.9083 0.142337V0.144462Z" fill="#393939"/>
</svg>
