<svg width="34" height="35" viewBox="0 0 34 35" fill="none" xmlns="http://www.w3.org/2000/svg">
<g clip-path="url(#clip0_121_5511)">
<path d="M17 32.1699C13.0549 32.1699 9.27139 30.6027 6.48179 27.8131C3.69218 25.0235 2.125 21.24 2.125 17.2949C2.125 13.3498 3.69218 9.56631 6.48179 6.77671C9.27139 3.9871 13.0549 2.41992 17 2.41992C20.9451 2.41992 24.7286 3.9871 27.5182 6.77671C30.3078 9.56631 31.875 13.3498 31.875 17.2949C31.875 21.24 30.3078 25.0235 27.5182 27.8131C24.7286 30.6027 20.9451 32.1699 17 32.1699ZM17 34.2949C21.5087 34.2949 25.8327 32.5039 29.0208 29.3157C32.2089 26.1276 34 21.8036 34 17.2949C34 12.7862 32.2089 8.46222 29.0208 5.27411C25.8327 2.08599 21.5087 0.294922 17 0.294922C12.4913 0.294922 8.1673 2.08599 4.97919 5.27411C1.79107 8.46222 0 12.7862 0 17.2949C0 21.8036 1.79107 26.1276 4.97919 29.3157C8.1673 32.5039 12.4913 34.2949 17 34.2949Z" fill="#393939"/>
<path d="M14.879 23.6698C14.879 23.3907 14.934 23.1144 15.0408 22.8566C15.1475 22.5988 15.3041 22.3645 15.5014 22.1672C15.6987 21.9699 15.933 21.8134 16.1908 21.7066C16.4486 21.5998 16.7249 21.5448 17.004 21.5448C17.2831 21.5448 17.5594 21.5998 17.8172 21.7066C18.075 21.8134 18.3093 21.9699 18.5066 22.1672C18.7039 22.3645 18.8605 22.5988 18.9672 22.8566C19.074 23.1144 19.129 23.3907 19.129 23.6698C19.129 24.2334 18.9051 24.7739 18.5066 25.1724C18.1081 25.5709 17.5676 25.7948 17.004 25.7948C16.4404 25.7948 15.8999 25.5709 15.5014 25.1724C15.1029 24.7739 14.879 24.2334 14.879 23.6698ZM15.0872 10.9092C15.0589 10.6411 15.0873 10.3701 15.1705 10.1136C15.2538 9.85723 15.39 9.62118 15.5703 9.4208C15.7506 9.22043 15.9711 9.0602 16.2173 8.95053C16.4636 8.84086 16.7302 8.78418 16.9997 8.78418C17.2693 8.78418 17.5359 8.84086 17.7821 8.95053C18.0284 9.0602 18.2489 9.22043 18.4292 9.4208C18.6095 9.62118 18.7457 9.85723 18.8289 10.1136C18.9122 10.3701 18.9405 10.6411 18.9122 10.9092L18.1685 18.3616C18.1435 18.6543 18.0096 18.927 17.7931 19.1258C17.5767 19.3245 17.2936 19.4348 16.9997 19.4348C16.7059 19.4348 16.4228 19.3245 16.2064 19.1258C15.9899 18.927 15.856 18.6543 15.831 18.3616L15.0872 10.9092Z" fill="#393939"/>
</g>
<defs>
<clipPath id="clip0_121_5511">
<rect width="34" height="34" fill="white" transform="translate(0 0.294922)"/>
</clipPath>
</defs>
</svg>
