<svg width="23" height="23" viewBox="0 0 23 23" fill="none" xmlns="http://www.w3.org/2000/svg">
<g clip-path="url(#clip0_130_3943)">
<path fill-rule="evenodd" clip-rule="evenodd" d="M14.375 17.9688C14.375 18.1594 14.2993 18.3422 14.1645 18.477C14.0297 18.6118 13.8469 18.6875 13.6562 18.6875H2.15625C1.96563 18.6875 1.78281 18.6118 1.64802 18.477C1.51323 18.3422 1.4375 18.1594 1.4375 17.9688V5.03125C1.4375 4.84063 1.51323 4.65781 1.64802 4.52302C1.78281 4.38823 1.96563 4.3125 2.15625 4.3125H13.6562C13.8469 4.3125 14.0297 4.38823 14.1645 4.52302C14.2993 4.65781 14.375 4.84063 14.375 5.03125V7.90625C14.375 8.09687 14.4507 8.27969 14.5855 8.41448C14.7203 8.54927 14.9031 8.625 15.0938 8.625C15.2844 8.625 15.4672 8.54927 15.602 8.41448C15.7368 8.27969 15.8125 8.09687 15.8125 7.90625V5.03125C15.8125 4.45938 15.5853 3.91093 15.1809 3.50655C14.7766 3.10218 14.2281 2.875 13.6562 2.875H2.15625C1.58438 2.875 1.03593 3.10218 0.631551 3.50655C0.227176 3.91093 0 4.45938 0 5.03125L0 17.9688C0 18.5406 0.227176 19.0891 0.631551 19.4935C1.03593 19.8978 1.58438 20.125 2.15625 20.125H13.6562C14.2281 20.125 14.7766 19.8978 15.1809 19.4935C15.5853 19.0891 15.8125 18.5406 15.8125 17.9688V15.0938C15.8125 14.9031 15.7368 14.7203 15.602 14.5855C15.4672 14.4507 15.2844 14.375 15.0938 14.375C14.9031 14.375 14.7203 14.4507 14.5855 14.5855C14.4507 14.7203 14.375 14.9031 14.375 15.0938V17.9688Z" fill="#5575E8"/>
<path fill-rule="evenodd" clip-rule="evenodd" d="M22.7901 12.0089C22.8571 11.9422 22.9102 11.8628 22.9464 11.7755C22.9826 11.6882 23.0013 11.5946 23.0013 11.5001C23.0013 11.4055 22.9826 11.3119 22.9464 11.2246C22.9102 11.1373 22.8571 11.0579 22.7901 10.9912L18.4776 6.67868C18.3427 6.54372 18.1596 6.4679 17.9688 6.4679C17.7779 6.4679 17.5948 6.54372 17.4599 6.67868C17.3249 6.81364 17.2491 6.99669 17.2491 7.18755C17.2491 7.37842 17.3249 7.56147 17.4599 7.69643L20.5462 10.7813H7.90625C7.71563 10.7813 7.53281 10.857 7.39802 10.9918C7.26323 11.1266 7.1875 11.3094 7.1875 11.5001C7.1875 11.6907 7.26323 11.8735 7.39802 12.0083C7.53281 12.1431 7.71563 12.2188 7.90625 12.2188H20.5462L17.4599 15.3037C17.3249 15.4386 17.2491 15.6217 17.2491 15.8126C17.2491 16.0034 17.3249 16.1865 17.4599 16.3214C17.5948 16.4564 17.7779 16.5322 17.9688 16.5322C18.1596 16.5322 18.3427 16.4564 18.4776 16.3214L22.7901 12.0089Z" fill="#5575E8"/>
</g>
<defs>
<clipPath id="clip0_130_3943">
<rect width="23" height="23" fill="white"/>
</clipPath>
</defs>
</svg>
