<svg width="21" height="20" viewBox="0 0 21 20" fill="none" xmlns="http://www.w3.org/2000/svg">
<path d="M14.9215 12.6546C16.0907 11.0591 16.6143 9.081 16.3877 7.11601C16.1611 5.15102 15.2009 3.34405 13.6992 2.05662C12.1975 0.769183 10.2651 0.09623 8.28854 0.17239C6.31199 0.24855 4.43707 1.06821 3.03891 2.46738C1.64074 3.86655 0.822422 5.74204 0.747676 7.71865C0.67293 9.69525 1.34727 11.6272 2.63577 13.128C3.92428 14.6287 5.73193 15.5876 7.69709 15.8129C9.66224 16.0381 11.64 15.513 13.2346 14.3426H13.2334C13.2696 14.3909 13.3083 14.4368 13.3517 14.4815L18.0005 19.1303C18.227 19.3569 18.5341 19.4842 18.8544 19.4844C19.1747 19.4845 19.482 19.3573 19.7085 19.1309C19.9351 18.9045 20.0625 18.5974 20.0626 18.2771C20.0627 17.9567 19.9356 17.6495 19.7091 17.4229L15.0603 12.7741C15.0171 12.7304 14.9707 12.69 14.9215 12.6534V12.6546ZM15.233 8.01299C15.233 8.88512 15.0612 9.74871 14.7275 10.5545C14.3937 11.3602 13.9045 12.0923 13.2878 12.709C12.6711 13.3257 11.939 13.8149 11.1333 14.1486C10.3275 14.4824 9.46394 14.6542 8.59181 14.6542C7.71968 14.6542 6.85609 14.4824 6.05034 14.1486C5.2446 13.8149 4.51248 13.3257 3.89579 12.709C3.2791 12.0923 2.78992 11.3602 2.45617 10.5545C2.12242 9.74871 1.95064 8.88512 1.95064 8.01299C1.95064 6.25164 2.65033 4.56243 3.89579 3.31697C5.14125 2.07151 6.83046 1.37181 8.59181 1.37181C10.3532 1.37181 12.0424 2.07151 13.2878 3.31697C14.5333 4.56243 15.233 6.25164 15.233 8.01299Z" fill="#5575E8"/>
</svg>
