<svg width="29" height="39" viewBox="0 0 29 39" fill="none" xmlns="http://www.w3.org/2000/svg">
<path d="M0.25 5.30908C0.25 4.0493 0.750445 2.84112 1.64124 1.95032C2.53204 1.05953 3.74022 0.559082 5 0.559082L24 0.559082C25.2598 0.559082 26.468 1.05953 27.3588 1.95032C28.2496 2.84112 28.75 4.0493 28.75 5.30908V37.3716C28.7499 37.5864 28.6915 37.7971 28.5811 37.9814C28.4707 38.1656 28.3124 38.3165 28.123 38.4179C27.9336 38.5193 27.7203 38.5674 27.5058 38.5571C27.2912 38.5468 27.0835 38.4786 26.9046 38.3596L14.5 31.674L2.09537 38.3596C1.91655 38.4786 1.7088 38.5468 1.49424 38.5571C1.27969 38.5674 1.06637 38.5193 0.876999 38.4179C0.687631 38.3165 0.52931 38.1656 0.418896 37.9814C0.308482 37.7971 0.250111 37.5864 0.25 37.3716V5.30908Z" fill="#5575E8"/>
</svg>
