<svg width="30" height="38" viewBox="0 0 30 38" fill="none" xmlns="http://www.w3.org/2000/svg">
<path d="M0.75 4.75C0.75 3.49022 1.25044 2.28204 2.14124 1.39124C3.03204 0.500445 4.24022 0 5.5 0L24.5 0C25.7598 0 26.968 0.500445 27.8588 1.39124C28.7496 2.28204 29.25 3.49022 29.25 4.75V36.8125C29.2499 37.0273 29.1915 37.238 29.0811 37.4223C28.9707 37.6065 28.8124 37.7574 28.623 37.8588C28.4336 37.9602 28.2203 38.0083 28.0058 37.998C27.7912 37.9878 27.5834 37.9195 27.4046 37.8005L15 31.1149L2.59537 37.8005C2.41655 37.9195 2.2088 37.9878 1.99424 37.998C1.77969 38.0083 1.56637 37.9602 1.377 37.8588C1.18763 37.7574 1.02931 37.6065 0.918896 37.4223C0.808482 37.238 0.750111 37.0273 0.75 36.8125V4.75ZM5.5 2.375C4.87011 2.375 4.26602 2.62522 3.82062 3.07062C3.37522 3.51602 3.125 4.12011 3.125 4.75V34.5942L14.3421 28.6995C14.537 28.5698 14.7659 28.5006 15 28.5006C15.2341 28.5006 15.463 28.5698 15.6579 28.6995L26.875 34.5942V4.75C26.875 4.12011 26.6248 3.51602 26.1794 3.07062C25.734 2.62522 25.1299 2.375 24.5 2.375H5.5Z" fill="#161616"/>
</svg>
