<svg width="36" height="35" viewBox="0 0 36 35" fill="none" xmlns="http://www.w3.org/2000/svg">
<path d="M6.0255 25.5049C6.25904 25.7458 6.438 26.0368 6.54962 26.3569C6.66124 26.6771 6.70277 27.0186 6.67125 27.3572C6.51312 28.9241 6.21332 30.4724 5.77575 31.9822C8.9145 31.2353 10.8315 30.3704 11.7023 29.9171C12.1961 29.66 12.7649 29.5991 13.2997 29.746C14.833 30.1661 16.4132 30.3776 18 30.375C26.991 30.375 33.75 23.8838 33.75 16.5C33.75 9.1185 26.991 2.625 18 2.625C9.009 2.625 2.25 9.1185 2.25 16.5C2.25 19.8948 3.63825 23.0444 6.0255 25.5049ZM4.91625 34.5352C4.38315 34.6438 3.84833 34.7433 3.312 34.8335C2.862 34.9075 2.52 34.4265 2.69775 33.9964C2.89753 33.5121 3.08065 33.0208 3.24675 32.5233L3.2535 32.5002C3.8115 30.8352 4.266 28.9204 4.4325 27.1375C1.67175 24.2931 0 20.57 0 16.5C0 7.55988 8.0595 0.3125 18 0.3125C27.9405 0.3125 36 7.55988 36 16.5C36 25.4401 27.9405 32.6875 18 32.6875C16.2172 32.69 14.4418 32.4521 12.7192 31.9799C11.5492 32.5881 9.0315 33.6958 4.91625 34.5352Z" fill="#393939"/>
</svg>
