<svg width="25" height="25" viewBox="0 0 25 25" fill="none" xmlns="http://www.w3.org/2000/svg">
<g clip-path="url(#clip0_392_4683)">
<path d="M9.375 0.434384C9.52752 0.619716 9.62096 0.846527 9.64324 1.08551C9.66553 1.3245 9.61563 1.56467 9.5 1.77501C8.59665 3.43356 8.1249 5.29265 8.12813 7.18126C8.12813 13.4641 13.25 18.5516 19.5625 18.5516C20.3859 18.5516 21.1875 18.4656 21.9578 18.3016C22.1939 18.2504 22.4399 18.27 22.665 18.3578C22.8901 18.4456 23.0843 18.5978 23.2234 18.7953C23.3703 19.0007 23.4452 19.2489 23.4364 19.5012C23.4276 19.7536 23.3357 19.9959 23.175 20.1906C21.9495 21.696 20.4035 22.9089 18.6497 23.7409C16.896 24.5729 14.9786 25.0031 13.0375 25C5.83437 25 0 19.1969 0 12.0469C0 6.66563 3.30313 2.05001 8.00625 0.0937586C8.24053 -0.00525409 8.50061 -0.025576 8.74742 0.0358456C8.99424 0.0972672 9.21445 0.237116 9.375 0.434384Z" fill="#161616"/>
<path d="M16.8656 4.91876C16.888 4.8511 16.9312 4.79221 16.989 4.75048C17.0468 4.70874 17.1162 4.68628 17.1875 4.68628C17.2588 4.68628 17.3283 4.70874 17.386 4.75048C17.4438 4.79221 17.487 4.8511 17.5094 4.91876L18.1141 6.73439C18.3844 7.54376 19.0188 8.17814 19.8281 8.44845L21.6438 9.05314C21.7114 9.07554 21.7703 9.1187 21.812 9.17649C21.8538 9.23427 21.8762 9.30373 21.8762 9.37501C21.8762 9.44629 21.8538 9.51576 21.812 9.57354C21.7703 9.63132 21.7114 9.67448 21.6438 9.69689L19.8281 10.3016C19.429 10.4346 19.0662 10.6587 18.7687 10.9562C18.4712 11.2537 18.2471 11.6165 18.1141 12.0156L17.5094 13.8313C17.487 13.8989 17.4438 13.9578 17.386 13.9995C17.3283 14.0413 17.2588 14.0637 17.1875 14.0637C17.1162 14.0637 17.0468 14.0413 16.989 13.9995C16.9312 13.9578 16.888 13.8989 16.8656 13.8313L16.2609 12.0156C16.128 11.6165 15.9038 11.2537 15.6063 10.9562C15.3088 10.6587 14.9461 10.4346 14.5469 10.3016L12.7313 9.69689C12.6636 9.67448 12.6047 9.63132 12.563 9.57354C12.5212 9.51576 12.4988 9.44629 12.4988 9.37501C12.4988 9.30373 12.5212 9.23427 12.563 9.17649C12.6047 9.1187 12.6636 9.07554 12.7313 9.05314L14.5469 8.44845C14.9461 8.31545 15.3088 8.09132 15.6063 7.7938C15.9038 7.49629 16.128 7.13357 16.2609 6.73439L16.8656 4.91876ZM21.6609 0.154698C21.6764 0.110208 21.7053 0.0716289 21.7436 0.0443252C21.782 0.0170216 21.8279 0.00234985 21.875 0.00234985C21.9221 0.00234985 21.968 0.0170216 22.0064 0.0443252C22.0447 0.0716289 22.0736 0.110208 22.0891 0.154698L22.4922 1.36407C22.6719 1.9047 23.0953 2.32814 23.6359 2.50782L24.8453 2.91095C24.8898 2.92637 24.9284 2.95528 24.9557 2.99364C24.983 3.032 24.9977 3.07792 24.9977 3.12501C24.9977 3.1721 24.983 3.21802 24.9557 3.25638C24.9284 3.29474 24.8898 3.32365 24.8453 3.33907L23.6359 3.7422C23.3695 3.83083 23.1274 3.98035 22.9289 4.17889C22.7303 4.37743 22.5808 4.61952 22.4922 4.88595L22.0891 6.09532C22.0736 6.13981 22.0447 6.17839 22.0064 6.2057C21.968 6.233 21.9221 6.24767 21.875 6.24767C21.8279 6.24767 21.782 6.233 21.7436 6.2057C21.7053 6.17839 21.6764 6.13981 21.6609 6.09532L21.2578 4.88595C21.1692 4.61952 21.0197 4.37743 20.8211 4.17889C20.6226 3.98035 20.3805 3.83083 20.1141 3.7422L18.9047 3.33907C18.8602 3.32365 18.8216 3.29474 18.7943 3.25638C18.767 3.21802 18.7523 3.1721 18.7523 3.12501C18.7523 3.07792 18.767 3.032 18.7943 2.99364C18.8216 2.95528 18.8602 2.92637 18.9047 2.91095L20.1141 2.50782C20.6547 2.32814 21.0781 1.9047 21.2578 1.36407L21.6609 0.15626V0.154698Z" fill="#161616"/>
</g>
<defs>
<clipPath id="clip0_392_4683">
<rect width="25" height="25" fill="white"/>
</clipPath>
</defs>
</svg>
