<svg width="558" height="284" viewBox="0 0 558 284" fill="none" xmlns="http://www.w3.org/2000/svg">
<mask id="mask0_131_6801" style="mask-type:alpha" maskUnits="userSpaceOnUse" x="0" y="0" width="558" height="284">
<path d="M0.5 40C0.5 18.1847 18.1847 0.5 40 0.5H518C539.815 0.5 557.5 18.1848 557.5 40V283.5H0.5V40Z" fill="#F5F5F5" stroke="#C4C4C4"/>
</mask>
<g mask="url(#mask0_131_6801)">
<path d="M0.5 40C0.5 18.1847 18.1847 0.5 40 0.5H518C539.815 0.5 557.5 18.1848 557.5 40V283.5H0.5V40Z" fill="#F5F5F5" stroke="#C4C4C4"/>
<path d="M433.5 136.5H509.5V234.5H433.5V136.5Z" fill="#CACACA" stroke="#A3A3A3"/>
<rect width="558" height="35" fill="#DFDFDF"/>
<rect x="58" y="53" width="141" height="19" fill="#DFDFDF"/>
<rect x="58" y="128" width="141" height="19" fill="#DFDFDF"/>
<rect x="58" y="81" width="89" height="9" fill="#DFDFDF"/>
<rect x="58" y="156" width="259" height="9" fill="#DFDFDF"/>
<rect x="58" y="176" width="259" height="9" fill="#DFDFDF"/>
<rect x="58" y="196" width="259" height="9" fill="#DFDFDF"/>
<rect x="58" y="216" width="259" height="9" fill="#DFDFDF"/>
<circle cx="458.5" cy="18.5" r="7.5" fill="#C4C4C4"/>
<circle cx="480.5" cy="18.5" r="7.5" fill="#C4C4C4"/>
<circle cx="502.5" cy="18.5" r="7.5" fill="#C4C4C4"/>
<rect x="58" y="10" width="66" height="16" fill="#C4C4C4"/>
</g>
</svg>
