<svg width="37" height="37" viewBox="0 0 37 37" fill="none" xmlns="http://www.w3.org/2000/svg">
<path d="M37 18.5C37 18.5 30.0625 5.78125 18.5 5.78125C6.9375 5.78125 0 18.5 0 18.5C0 18.5 6.9375 31.2188 18.5 31.2188C30.0625 31.2188 37 18.5 37 18.5ZM2.71256 18.5C3.83069 16.8006 5.11673 15.2178 6.55131 13.7756C9.5275 10.7947 13.5975 8.09375 18.5 8.09375C23.4025 8.09375 27.4702 10.7947 30.451 13.7756C31.8856 15.2178 33.1716 16.8006 34.2897 18.5C34.1556 18.7012 34.0076 18.9232 33.8388 19.166C33.0641 20.276 31.9194 21.756 30.451 23.2244C27.4702 26.2052 23.4002 28.9062 18.5 28.9062C13.5975 28.9062 9.52981 26.2052 6.549 23.2244C5.11443 21.7822 3.82839 20.1994 2.71025 18.5H2.71256Z" fill="#393939"/>
<path d="M18.5 12.7188C16.9667 12.7188 15.4962 13.3278 14.412 14.412C13.3278 15.4962 12.7188 16.9667 12.7188 18.5C12.7188 20.0333 13.3278 21.5038 14.412 22.588C15.4962 23.6722 16.9667 24.2812 18.5 24.2812C20.0333 24.2812 21.5038 23.6722 22.588 22.588C23.6722 21.5038 24.2812 20.0333 24.2812 18.5C24.2812 16.9667 23.6722 15.4962 22.588 14.412C21.5038 13.3278 20.0333 12.7188 18.5 12.7188ZM10.4062 18.5C10.4062 16.3534 11.259 14.2947 12.7769 12.7769C14.2947 11.259 16.3534 10.4063 18.5 10.4062C20.6466 10.4062 22.7053 11.259 24.2231 12.7769C25.741 14.2947 26.5938 16.3534 26.5938 18.5C26.5938 20.6466 25.741 22.7053 24.2231 24.2231C22.7053 25.741 20.6466 26.5938 18.5 26.5938C16.3534 26.5938 14.2947 25.741 12.7769 24.2231C11.259 22.7053 10.4062 20.6466 10.4062 18.5Z" fill="#393939"/>
</svg>
