<svg width="29" height="29" viewBox="0 0 29 29" fill="none" xmlns="http://www.w3.org/2000/svg">
<g clip-path="url(#clip0_392_4900)">
<path d="M14.5 27.1875C11.1351 27.1875 7.90795 25.8508 5.52858 23.4714C3.14921 21.092 1.8125 17.8649 1.8125 14.5C1.8125 11.1351 3.14921 7.90795 5.52858 5.52858C7.90795 3.14921 11.1351 1.8125 14.5 1.8125C17.8649 1.8125 21.092 3.14921 23.4714 5.52858C25.8508 7.90795 27.1875 11.1351 27.1875 14.5C27.1875 17.8649 25.8508 21.092 23.4714 23.4714C21.092 25.8508 17.8649 27.1875 14.5 27.1875ZM14.5 29C18.3456 29 22.0338 27.4723 24.753 24.753C27.4723 22.0338 29 18.3456 29 14.5C29 10.6544 27.4723 6.96623 24.753 4.24695C22.0338 1.52767 18.3456 0 14.5 0C10.6544 0 6.96623 1.52767 4.24695 4.24695C1.52767 6.96623 0 10.6544 0 14.5C0 18.3456 1.52767 22.0338 4.24695 24.753C6.96623 27.4723 10.6544 29 14.5 29Z" fill="#5F6681"/>
<path d="M7.76658 17.3402C7.97472 17.22 8.22208 17.1875 8.45424 17.2497C8.68639 17.3119 8.88433 17.4637 9.00451 17.6719C9.56115 18.6367 10.3622 19.4379 11.3269 19.9947C12.2917 20.5516 13.3861 20.8444 14.5 20.8437C15.6139 20.8444 16.7084 20.5516 17.6731 19.9947C18.6379 19.4379 19.4389 18.6367 19.9955 17.6719C20.0546 17.568 20.1336 17.4768 20.2281 17.4036C20.3225 17.3303 20.4305 17.2765 20.5459 17.2452C20.6612 17.2139 20.7816 17.2057 20.9001 17.2211C21.0187 17.2365 21.133 17.2752 21.2365 17.335C21.34 17.3947 21.4306 17.4744 21.5032 17.5693C21.5758 17.6642 21.6289 17.7726 21.6595 17.8882C21.69 18.0037 21.6974 18.1241 21.6812 18.2426C21.665 18.361 21.6256 18.475 21.5651 18.5781C20.8494 19.8185 19.8196 20.8485 18.5793 21.5644C17.3391 22.2803 15.9321 22.6569 14.5 22.6562C13.0679 22.6569 11.661 22.2803 10.4207 21.5644C9.18042 20.8485 8.1506 19.8185 7.43489 18.5781C7.31472 18.37 7.28215 18.1226 7.34436 17.8905C7.40656 17.6583 7.55843 17.4604 7.76658 17.3402ZM12.6875 11.7812C12.6875 13.282 11.8755 14.5 10.875 14.5C9.87451 14.5 9.06251 13.282 9.06251 11.7812C9.06251 10.2805 9.87451 9.0625 10.875 9.0625C11.8755 9.0625 12.6875 10.2805 12.6875 11.7812ZM19.9375 11.7812C19.9375 13.282 19.1255 14.5 18.125 14.5C17.1245 14.5 16.3125 13.282 16.3125 11.7812C16.3125 10.2805 17.1245 9.0625 18.125 9.0625C19.1255 9.0625 19.9375 10.2805 19.9375 11.7812Z" fill="#5F6681"/>
</g>
<defs>
<clipPath id="clip0_392_4900">
<rect width="29" height="29" fill="white"/>
</clipPath>
</defs>
</svg>
