<svg width="45" height="26" viewBox="0 0 45 26" fill="none" xmlns="http://www.w3.org/2000/svg">
<path fill-rule="evenodd" clip-rule="evenodd" d="M22.0216 25.6358H24.7113C24.7113 25.6358 25.5221 25.5486 25.9387 25.1127C26.3553 24.6769 26.3078 23.9631 26.3078 23.9631C26.3078 23.9631 26.2547 20.4461 27.9294 19.9285C29.6042 19.4109 31.7012 23.3256 33.9464 24.8321C35.6463 25.9709 36.938 25.7202 36.938 25.7202L42.9465 25.6385C42.9465 25.6385 46.0892 25.4505 44.5989 23.0423C44.4759 22.8462 43.7294 21.2606 40.1254 18.0052C36.3565 14.5999 36.8625 15.1502 41.4004 9.25761C44.1656 5.66705 45.27 3.47676 44.9233 2.53689C44.5962 1.64334 42.5607 1.88035 42.5607 1.88035L35.7973 1.92121C35.4977 1.88556 35.194 1.93772 34.9249 2.07104C34.6677 2.25453 34.4619 2.4981 34.3266 2.77935C33.6256 4.54927 32.7901 6.26578 31.827 7.91456C28.8158 12.8999 27.6107 13.1615 27.1186 12.8536C25.9723 12.1317 26.2603 9.95502 26.2603 8.41037C26.2603 3.57756 27.0124 1.56434 24.7952 1.0549C24.0598 0.880552 23.5174 0.78248 21.6385 0.749789C19.2228 0.725271 17.1818 0.749789 16.0243 1.29464C15.2554 1.66241 14.6598 2.47968 15.0233 2.526C15.4707 2.58593 16.4828 2.79842 17.0196 3.504C17.713 4.42479 17.6879 6.48705 17.6879 6.48705C17.6879 6.48705 18.0877 12.1726 16.7568 12.8809C15.8453 13.3631 14.5955 12.3741 11.9086 7.8519C10.9975 6.27962 10.1915 4.65168 9.4957 2.97822C9.37136 2.69355 9.17976 2.44152 8.93651 2.24267C8.62169 2.03941 8.26787 1.90041 7.8964 1.83403L1.4657 1.8749C1.4657 1.8749 0.501103 1.89942 0.146016 2.31078C-0.167131 2.6731 0.120845 3.42499 0.120845 3.42499C0.120845 3.42499 5.15357 14.8995 10.8545 20.6804C16.0802 25.9818 22.0132 25.6331 22.0132 25.6331L22.0216 25.6358Z" fill="#393939"/>
</svg>
