<svg width="27" height="27" viewBox="0 0 27 27" fill="none" xmlns="http://www.w3.org/2000/svg">
<path d="M19.8161 17.4555C21.4501 15.2258 22.182 12.4613 21.8653 9.71517C21.5486 6.96904 20.2066 4.44375 18.108 2.64452C16.0093 0.845291 13.3087 -0.0951825 10.5464 0.0112534C7.78413 0.117689 5.16389 1.26318 3.2099 3.21857C1.25592 5.17395 0.1123 7.79501 0.00784102 10.5574C-0.0966183 13.3197 0.845787 16.0197 2.64652 18.1171C4.44724 20.2144 6.9735 21.5545 9.71986 21.8693C12.4662 22.184 15.2302 21.4502 17.4587 19.8146H17.457C17.5076 19.8821 17.5616 19.9462 17.6224 20.0087L24.1193 26.5055C24.4357 26.8222 24.8649 27.0002 25.3126 27.0003C25.7602 27.0005 26.1896 26.8228 26.5062 26.5064C26.8229 26.19 27.0009 25.7607 27.001 25.3131C27.0012 24.8654 26.8235 24.4361 26.5071 24.1194L20.0102 17.6225C19.9499 17.5615 19.885 17.5051 19.8161 17.4538V17.4555ZM20.2515 10.9687C20.2515 12.1876 20.0114 13.3945 19.545 14.5205C19.0786 15.6466 18.3949 16.6697 17.5331 17.5316C16.6713 18.3934 15.6481 19.0771 14.522 19.5435C13.396 20.0099 12.1891 20.25 10.9703 20.25C9.75143 20.25 8.54454 20.0099 7.41848 19.5435C6.29243 19.0771 5.26927 18.3934 4.40743 17.5316C3.54559 16.6697 2.86193 15.6466 2.39551 14.5205C1.92908 13.3945 1.68901 12.1876 1.68901 10.9687C1.68901 8.5072 2.66686 6.14647 4.40743 4.4059C6.148 2.66533 8.50872 1.68749 10.9703 1.68749C13.4318 1.68749 15.7925 2.66533 17.5331 4.4059C19.2737 6.14647 20.2515 8.5072 20.2515 10.9687Z" fill="#7B7B7B"/>
</svg>
