<svg width="30" height="31" viewBox="0 0 30 31" fill="none" xmlns="http://www.w3.org/2000/svg">
<path d="M15 3.45016C19.0078 3.45016 19.4832 3.46401 21.066 3.53784C22.5288 3.60245 23.3249 3.84702 23.8533 4.05468C24.5007 4.30397 25.0888 4.68612 25.5796 5.17652C26.0704 5.66691 26.453 6.25467 26.7028 6.90194C27.0331 7.79467 27.2079 8.73741 27.2197 9.6892C27.2912 11.272 27.3073 11.7473 27.3073 15.7552C27.3073 19.763 27.2912 20.2383 27.2197 21.8212C27.2081 22.7737 27.0333 23.7173 26.7028 24.6107C26.453 25.258 26.0704 25.8458 25.5796 26.3362C25.0888 26.8266 24.5007 27.2087 23.8533 27.458C22.9606 27.7887 22.0178 27.9636 21.066 27.9749C19.4832 28.0487 19.0078 28.0625 15 28.0625C10.9922 28.0625 10.5168 28.0487 8.93401 27.9749C7.98217 27.9636 7.03935 27.7887 6.14675 27.458C5.49928 27.2087 4.91121 26.8266 4.42042 26.3362C3.92963 25.8458 3.547 25.258 3.29718 24.6107C2.96669 23.7173 2.79188 22.7737 2.78034 21.8212C2.70881 20.2383 2.69266 19.7653 2.69266 15.7552C2.69266 11.745 2.70881 11.272 2.78034 9.6892C2.7921 8.73741 2.96691 7.79467 3.29718 6.90194C3.547 6.25467 3.92963 5.66691 4.42042 5.17652C4.91121 4.68612 5.49928 4.30397 6.14675 4.05468C6.67513 3.84702 7.46885 3.59322 8.93401 3.53784C10.5168 3.46401 10.9922 3.45016 15 3.45016ZM15 0.743652C10.9229 0.743652 10.4107 0.762114 8.80941 0.833642C7.56462 0.85713 6.33279 1.09117 5.16613 1.52584C4.17074 1.91159 3.26675 2.5007 2.5119 3.25555C1.75704 4.0104 1.16793 4.91439 0.782187 5.90978C0.346306 7.07611 0.112226 8.30815 0.089986 9.55307C0.0161512 11.1544 0 11.6643 0 15.7413C0 19.8184 0.0161512 20.3306 0.089986 21.9319C0.112495 23.1768 0.346566 24.4088 0.782187 25.5752C1.16793 26.5706 1.75704 27.4746 2.5119 28.2294C3.26675 28.9843 4.17074 29.5734 5.16613 29.9592C6.33253 30.3948 7.56452 30.6288 8.80941 30.6514C10.4107 30.7252 10.9229 30.7437 15 30.7437C19.0771 30.7437 19.587 30.7252 21.1883 30.6514C22.4339 30.6291 23.6667 30.395 24.8339 29.9592C25.8296 29.574 26.7339 28.9851 27.4889 28.2302C28.2438 27.4753 28.8327 26.571 29.2178 25.5752C29.6525 24.4085 29.8865 23.1767 29.91 21.9319C29.9815 20.3306 30 19.8184 30 15.7413C30 11.6643 29.9815 11.1544 29.91 9.55307C29.8867 8.30826 29.6527 7.07639 29.2178 5.90978C28.8327 4.91403 28.2438 4.00972 27.4889 3.25479C26.7339 2.49986 25.8296 1.91097 24.8339 1.52584C23.6665 1.091 22.4338 0.856959 21.1883 0.833642C19.587 0.762114 19.0771 0.743652 15 0.743652Z" fill="#393939"/>
<path d="M15.0003 8.04639C13.4757 8.04639 11.9852 8.4985 10.7175 9.34555C9.44983 10.1926 8.46177 11.3966 7.87831 12.8052C7.29484 14.2138 7.14218 15.7637 7.43963 17.2591C7.73708 18.7545 8.47127 20.1281 9.54937 21.2062C10.6275 22.2842 12.001 23.0184 13.4964 23.3159C14.9918 23.6133 16.5418 23.4607 17.9504 22.8772C19.359 22.2937 20.5629 21.3057 21.41 20.038C22.257 18.7703 22.7091 17.2799 22.7091 15.7552C22.7091 14.7429 22.5097 13.7404 22.1223 12.8052C21.7349 11.8699 21.1671 11.0201 20.4513 10.3042C19.7354 9.58841 18.8856 9.02059 17.9504 8.63318C17.0151 8.24578 16.0127 8.04639 15.0003 8.04639ZM15.0003 20.7598C14.0105 20.7598 13.0429 20.4663 12.2199 19.9164C11.3969 19.3665 10.7554 18.5849 10.3767 17.6704C9.99787 16.7559 9.89876 15.7496 10.0919 14.7788C10.285 13.808 10.7616 12.9163 11.4615 12.2164C12.1614 11.5165 13.0532 11.0398 14.024 10.8467C14.9948 10.6536 16.001 10.7527 16.9155 11.1315C17.83 11.5103 18.6116 12.1518 19.1615 12.9748C19.7114 13.7978 20.0049 14.7654 20.0049 15.7552C20.0049 17.0825 19.4777 18.3554 18.5391 19.294C17.6006 20.2325 16.3276 20.7598 15.0003 20.7598Z" fill="#393939"/>
<path d="M23.0144 9.54351C24.0097 9.54351 24.8165 8.73672 24.8165 7.74148C24.8165 6.74625 24.0097 5.93945 23.0144 5.93945C22.0192 5.93945 21.2124 6.74625 21.2124 7.74148C21.2124 8.73672 22.0192 9.54351 23.0144 9.54351Z" fill="#393939"/>
</svg>
