<svg width="36" height="35" viewBox="0 0 36 35" fill="none" xmlns="http://www.w3.org/2000/svg">
<path d="M18.0001 6.35474L16.3868 4.65043C12.6001 0.649803 5.65657 2.03037 3.15007 7.06005C1.97332 9.42574 1.70782 12.8413 3.85657 17.2004C5.92657 21.3976 10.2331 26.4249 18.0001 31.9009C25.7671 26.4249 30.0713 21.3976 32.1436 17.2004C34.2923 12.839 34.0291 9.42574 32.8501 7.06005C30.3436 2.03037 23.4001 0.64749 19.6133 4.64811L18.0001 6.35474ZM18.0001 34.6875C-16.4992 11.2572 7.37782 -7.03001 17.6041 2.64318C17.7391 2.77036 17.8718 2.90218 18.0001 3.03861C18.127 2.9023 18.2591 2.77116 18.3961 2.64549C28.6201 -7.03463 52.4993 11.2549 18.0001 34.6875Z" fill="#393939"/>
</svg>
