<?xml version="1.0" encoding="UTF-8" standalone="no"?>
<svg
   width="30"
   height="37"
   viewBox="0 0 30 37"
   fill="none"
   version="1.1"
   id="svg4"
   sodipodi:docname="like-comment.svg"
   inkscape:version="1.1.1 (3bf5ae0d25, 2021-09-20)"
   xmlns:inkscape="http://www.inkscape.org/namespaces/inkscape"
   xmlns:sodipodi="http://sodipodi.sourceforge.net/DTD/sodipodi-0.dtd"
   xmlns="http://www.w3.org/2000/svg"
   xmlns:svg="http://www.w3.org/2000/svg">
  <defs
     id="defs8" />
  <sodipodi:namedview
     id="namedview6"
     pagecolor="#ffffff"
     bordercolor="#666666"
     borderopacity="1.0"
     inkscape:pageshadow="2"
     inkscape:pageopacity="0.0"
     inkscape:pagecheckerboard="0"
     showgrid="false"
     inkscape:zoom="19.432432"
     inkscape:cx="15.000695"
     inkscape:cy="18.5"
     inkscape:window-width="1920"
     inkscape:window-height="1001"
     inkscape:window-x="-9"
     inkscape:window-y="-9"
     inkscape:window-maximized="1"
     inkscape:current-layer="svg4" />
  <path
     d="M 14.090212,0.08912815 C 12.21477,-0.37436896 10.472767,1.0277608 10.347217,2.8429612 10.205974,4.8811767 9.8960863,6.7526236 9.5076455,7.8657872 9.2623993,8.5639831 8.5679819,9.8303045 7.4674619,11.044296 6.3747888,12.252501 4.952539,13.328874 3.2870451,13.778795 1.9687726,14.133701 0.625,15.26232 0.625,16.910802 v 7.759196 c 0,1.63867 1.3378854,2.839159 2.8405633,2.996233 2.0990308,0.221062 3.0681223,0.804827 4.0568266,1.402095 l 0.094162,0.0582 c 0.5335865,0.319935 1.1338925,0.674841 1.9028848,0.938588 0.7787483,0.263747 1.6889843,0.420905 2.8758533,0.420905 h 6.86596 c 1.838201,0 3.136793,-0.925086 3.793978,-2.063517 0.317607,-0.537138 0.489305,-1.146482 0.498297,-1.768573 0,-0.294776 -0.04513,-0.605151 -0.151084,-0.899927 0.394294,-0.509967 0.745494,-1.120904 0.957317,-1.747272 0.21581,-0.639953 0.337457,-1.477738 0.0079,-2.228306 0.135305,-0.25209 0.235406,-0.521624 0.311923,-0.781513 0.150999,-0.523637 0.221664,-1.101532 0.221664,-1.661984 0,-0.558523 -0.07066,-1.13449 -0.221664,-1.660055 -0.06863,-0.241608 -0.159227,-0.47659 -0.27078,-0.702096 0.343565,-0.483131 0.56455,-1.040731 0.644461,-1.626007 0.07983,-0.585191 0.01629,-1.180865 -0.185356,-1.736705 -0.404134,-1.148075 -1.337953,-2.13329 -2.354058,-2.466811 -1.661583,-0.546866 -3.537025,-0.535293 -4.935717,-0.409248 -0.290376,0.02583 -0.580159,0.0582 -0.869008,0.09703 C 17.389625,7.9499263 17.347889,4.9481156 16.587464,2.0866235 16.455213,1.6281481 16.201399,1.2129288 15.852404,0.88392008 15.503325,0.55490212 15.07179,0.3240316 14.602251,0.21518331 Z M 19.26125,28.548631 h -6.86596 c -1.000496,0 -1.692971,-0.133844 -2.236398,-0.31809 C 9.6076611,28.042438 9.1662859,27.788419 8.6366016,27.4684 L 8.5581756,27.42186 C 7.4694215,26.76446 6.2080366,26.004247 3.6735009,25.738572 3.0202519,25.668714 2.586715,25.176107 2.586715,24.671926 v -7.761124 c 0,-0.492607 0.4433433,-1.053059 1.2162633,-1.260619 2.14808,-0.581753 3.8783084,-1.931517 5.1279018,-3.312311 C 10.176622,10.960937 11.018145,9.4773279 11.359504,8.501925 11.836169,7.1443614 12.157933,5.0731712 12.30503,2.9748347 12.35406,2.2727979 13.011247,1.8228764 13.613547,1.9702645 l 0.513905,0.1279991 c 0.313875,0.077573 0.506187,0.277316 0.564974,0.4945194 0.801144,3.0176187 0.7024,6.1998927 -0.284438,9.163252 -0.05582,0.164874 -0.06583,0.341488 -0.02901,0.511393 0.0369,0.169989 0.119357,0.326979 0.23863,0.454702 0.119357,0.127638 0.271204,0.221228 0.439678,0.271043 0.16839,0.04973 0.347298,0.05384 0.517978,0.01182 l 0.0059,-0.0019 0.02748,-0.0059 0.113759,-0.02709 c 0.670842,-0.140889 1.349405,-0.24253 2.032294,-0.304505 1.300628,-0.116401 2.858293,-0.104744 4.13924,0.318006 0.34331,0.112544 0.88275,0.581837 1.118156,1.260619 0.209957,0.597268 0.17068,1.299279 -0.521795,1.981919 l -0.692475,0.684652 0.692475,0.686497 c 0.08441,0.08336 0.20597,0.273391 0.302083,0.610854 0.09416,0.323876 0.147182,0.717526 0.147182,1.126774 0,0.411093 -0.05302,0.802898 -0.147182,1.128619 -0.09806,0.337462 -0.217676,0.527494 -0.302083,0.610938 l -0.692475,0.684568 0.692475,0.686497 c 0.09221,0.09116 0.213859,0.343249 0.0098,0.946386 -0.212586,0.584856 -0.550552,1.117382 -0.990655,1.561182 l -0.692475,0.684568 0.692475,0.686497 c 0.01171,0.0097 0.08042,0.09703 0.08042,0.329747 -0.0087,0.284377 -0.09043,0.562045 -0.237357,0.806672 -0.323715,0.558523 -0.986753,1.086101 -2.091252,1.086101 z"
     fill="#17b126"
     id="path2"
     style="stroke-width:0.843452" />
</svg>
