<svg width="34" height="34" viewBox="0 0 34 34" fill="none" xmlns="http://www.w3.org/2000/svg">
<path fill-rule="evenodd" clip-rule="evenodd" d="M12.75 7.4375C12.75 7.15571 12.8619 6.88546 13.0612 6.6862C13.2605 6.48694 13.5307 6.375 13.8125 6.375H30.8125C31.0943 6.375 31.3645 6.48694 31.5638 6.6862C31.7631 6.88546 31.875 7.15571 31.875 7.4375V26.5625C31.875 26.8443 31.7631 27.1145 31.5638 27.3138C31.3645 27.5131 31.0943 27.625 30.8125 27.625H13.8125C13.5307 27.625 13.2605 27.5131 13.0612 27.3138C12.8619 27.1145 12.75 26.8443 12.75 26.5625V22.3125C12.75 22.0307 12.6381 21.7605 12.4388 21.5612C12.2395 21.3619 11.9693 21.25 11.6875 21.25C11.4057 21.25 11.1355 21.3619 10.9362 21.5612C10.7369 21.7605 10.625 22.0307 10.625 22.3125V26.5625C10.625 27.4079 10.9608 28.2186 11.5586 28.8164C12.1564 29.4142 12.9671 29.75 13.8125 29.75H30.8125C31.6579 29.75 32.4686 29.4142 33.0664 28.8164C33.6642 28.2186 34 27.4079 34 26.5625V7.4375C34 6.59212 33.6642 5.78137 33.0664 5.1836C32.4686 4.58583 31.6579 4.25 30.8125 4.25H13.8125C12.9671 4.25 12.1564 4.58583 11.5586 5.1836C10.9608 5.78137 10.625 6.59212 10.625 7.4375V11.6875C10.625 11.9693 10.7369 12.2395 10.9362 12.4388C11.1355 12.6381 11.4057 12.75 11.6875 12.75C11.9693 12.75 12.2395 12.6381 12.4388 12.4388C12.6381 12.2395 12.75 11.9693 12.75 11.6875V7.4375Z" fill="#161616"/>
<path fill-rule="evenodd" clip-rule="evenodd" d="M25.1898 17.7522C25.2887 17.6536 25.3672 17.5363 25.4208 17.4072C25.4743 17.2781 25.5019 17.1398 25.5019 17C25.5019 16.8602 25.4743 16.7219 25.4208 16.5928C25.3672 16.4637 25.2887 16.3464 25.1898 16.2477L18.8148 9.87275C18.716 9.77396 18.5987 9.6956 18.4696 9.64214C18.3405 9.58867 18.2022 9.56116 18.0625 9.56116C17.9228 9.56116 17.7845 9.58867 17.6554 9.64214C17.5263 9.6956 17.409 9.77396 17.3102 9.87275C17.2115 9.97154 17.1331 10.0888 17.0796 10.2179C17.0262 10.347 16.9987 10.4853 16.9987 10.625C16.9987 10.7647 17.0262 10.903 17.0796 11.0321C17.1331 11.1612 17.2115 11.2785 17.3102 11.3772L21.8726 15.9375H3.1875C2.90571 15.9375 2.63546 16.0494 2.4362 16.2487C2.23694 16.448 2.125 16.7182 2.125 17C2.125 17.2818 2.23694 17.552 2.4362 17.7513C2.63546 17.9506 2.90571 18.0625 3.1875 18.0625H21.8726L17.3102 22.6227C17.2115 22.7215 17.1331 22.8388 17.0796 22.9679C17.0262 23.097 16.9987 23.2353 16.9987 23.375C16.9987 23.5147 17.0262 23.653 17.0796 23.7821C17.1331 23.9112 17.2115 24.0285 17.3102 24.1272C17.409 24.226 17.5263 24.3044 17.6554 24.3579C17.7845 24.4113 17.9228 24.4388 18.0625 24.4388C18.2022 24.4388 18.3405 24.4113 18.4696 24.3579C18.5987 24.3044 18.716 24.226 18.8148 24.1272L25.1898 17.7522Z" fill="#161616"/>
</svg>
