<svg width="191" height="129" viewBox="0 0 191 129" fill="none" xmlns="http://www.w3.org/2000/svg">
<g filter="url(#filter0_f_267_12289)">
<path d="M16.7125 159.136C30.53 112.936 21.4238 87.9636 15.1435 81.2522C-3.29312 62.1552 -20.762 111.737 -45.6565 124.19C-70.551 136.643 -50.3383 205.347 -33.3571 234.808C-16.3759 264.269 36.8413 265.626 67.0863 220.621C97.3313 175.616 -0.559345 216.885 16.7125 159.136Z" fill="#0038FF"/>
<path d="M25.0312 145.743C-21.4321 158.645 -37.7223 179.649 -40.0594 188.539C-46.4082 214.313 4.86266 202.7 28.6584 217.143C52.4542 231.585 99.8478 177.895 115.745 147.835C131.641 117.774 104.455 72.0054 50.2561 70.3661C-3.94275 68.7267 83.1103 129.616 25.0312 145.743Z" fill="#FAFF00"/>
<path d="M39.4797 155.335C66.9834 140.386 74.2184 124.721 74.3979 118.756C74.6481 101.526 43.9151 116.362 26.7539 110.704C9.59277 105.046 -12.5403 145.929 -18.2034 167.265C-23.8666 188.602 0.0161836 213.579 34.5372 206.698C69.0582 199.816 5.10009 174.021 39.4797 155.335Z" fill="#DB00FF"/>
</g>
<defs>
<filter id="filter0_f_267_12289" x="-127.307" y="0.333984" width="317.557" height="325.514" filterUnits="userSpaceOnUse" color-interpolation-filters="sRGB">
<feFlood flood-opacity="0" result="BackgroundImageFix"/>
<feBlend mode="normal" in="SourceGraphic" in2="BackgroundImageFix" result="shape"/>
<feGaussianBlur stdDeviation="35" result="effect1_foregroundBlur_267_12289"/>
</filter>
</defs>
</svg>
