<svg width="370" height="433" viewBox="0 0 370 433" fill="none" xmlns="http://www.w3.org/2000/svg">
<g filter="url(#filter0_f_333_25953)">
<path d="M4.22905 401.81C-65.1828 347.678 -113.693 346.608 -129.271 352.839C-173.974 371.533 -101.23 434.118 -96.5563 484.714C-91.8828 535.31 38.366 546.485 99.7313 537.138C161.097 527.791 198.688 438.182 142.199 356.903C85.7107 275.625 90.9939 469.474 4.22905 401.81Z" fill="#0038FF"/>
<path d="M-13.0287 378.78C-21.8921 466.357 3.03023 507.989 16.5994 517.857C56.2249 545.744 70.4692 450.846 110.809 419.951C151.148 389.056 91.2595 272.854 50.6745 225.886C10.0896 178.919 -85.7773 194.81 -124.501 285.902C-163.224 376.993 -1.9493 269.309 -13.0287 378.78Z" fill="#00C8AA"/>
<path d="M12.8644 360.568C5.67576 303.88 -16.1704 281.188 -26.1949 276.929C-55.3329 265.079 -50.478 327.185 -71.4796 352.62C-92.4812 378.055 -37.6234 442.805 -5.09091 466.583C27.4416 490.361 85.757 466.303 96.9416 403.029C108.126 339.755 21.8503 431.429 12.8644 360.568Z" fill="#00FFF0"/>
</g>
<defs>
<filter id="filter0_f_333_25953" x="-343.737" y="0.177002" width="713.695" height="739.96" filterUnits="userSpaceOnUse" color-interpolation-filters="sRGB">
<feFlood flood-opacity="0" result="BackgroundImageFix"/>
<feBlend mode="normal" in="SourceGraphic" in2="BackgroundImageFix" result="shape"/>
<feGaussianBlur stdDeviation="100" result="effect1_foregroundBlur_333_25953"/>
</filter>
</defs>
</svg>
