<svg width="299" height="496" viewBox="0 0 299 496" fill="none" xmlns="http://www.w3.org/2000/svg">
<g filter="url(#filter0_f_333_25949)">
<path d="M298.229 206.811C228.817 152.679 180.307 151.609 164.729 157.84C120.026 176.534 192.77 239.119 197.444 289.715C202.117 340.31 332.366 351.486 393.731 342.139C455.097 332.792 492.688 243.183 436.199 161.904C379.711 80.6256 384.994 274.475 298.229 206.811Z" fill="#0038FF"/>
<path d="M280.971 183.781C272.107 271.358 297.03 312.989 310.599 322.858C350.224 350.745 364.469 255.847 404.808 224.952C445.148 194.057 385.259 77.8547 344.674 30.8874C304.089 -16.0798 208.222 -0.188581 169.499 90.9028C130.775 181.994 292.05 74.3102 280.971 183.781Z" fill="#FAFF00"/>
<path d="M306.864 165.569C299.676 108.881 277.83 86.1893 267.805 81.9296C238.667 70.0802 243.522 132.186 222.52 157.621C201.519 183.056 256.377 247.806 288.909 271.584C321.442 295.362 379.757 271.304 390.942 208.03C402.126 144.756 315.85 236.43 306.864 165.569Z" fill="#DB00FF"/>
</g>
<defs>
<filter id="filter0_f_333_25949" x="0.262695" y="-144.822" width="613.695" height="639.96" filterUnits="userSpaceOnUse" color-interpolation-filters="sRGB">
<feFlood flood-opacity="0" result="BackgroundImageFix"/>
<feBlend mode="normal" in="SourceGraphic" in2="BackgroundImageFix" result="shape"/>
<feGaussianBlur stdDeviation="75" result="effect1_foregroundBlur_333_25949"/>
</filter>
</defs>
</svg>
