<svg width="109" height="83" viewBox="0 0 109 83" fill="none" xmlns="http://www.w3.org/2000/svg">
<path fill-rule="evenodd" clip-rule="evenodd" d="M40.875 10.8438C40.875 8.13357 41.9516 5.53439 43.868 3.618C45.7844 1.70162 48.3836 0.625 51.0938 0.625H57.9062C60.6164 0.625 63.2156 1.70162 65.132 3.618C67.0484 5.53439 68.125 8.13357 68.125 10.8438V17.6562C68.125 20.3664 67.0484 22.9656 65.132 24.882C63.2156 26.7984 60.6164 27.875 57.9062 27.875V34.6875H95.375C96.2784 34.6875 97.1448 35.0464 97.7836 35.6852C98.4224 36.324 98.7812 37.1904 98.7812 38.0938V44.9062C98.7812 45.8096 98.4224 46.676 97.7836 47.3148C97.1448 47.9536 96.2784 48.3125 95.375 48.3125C94.4716 48.3125 93.6052 47.9536 92.9664 47.3148C92.3276 46.676 91.9688 45.8096 91.9688 44.9062V41.5H57.9062V44.9062C57.9062 45.8096 57.5474 46.676 56.9086 47.3148C56.2698 47.9536 55.4034 48.3125 54.5 48.3125C53.5966 48.3125 52.7302 47.9536 52.0914 47.3148C51.4526 46.676 51.0938 45.8096 51.0938 44.9062V41.5H17.0312V44.9062C17.0312 45.8096 16.6724 46.676 16.0336 47.3148C15.3948 47.9536 14.5284 48.3125 13.625 48.3125C12.7216 48.3125 11.8552 47.9536 11.2164 47.3148C10.5776 46.676 10.2188 45.8096 10.2188 44.9062V38.0938C10.2188 37.1904 10.5776 36.324 11.2164 35.6852C11.8552 35.0464 12.7216 34.6875 13.625 34.6875H51.0938V27.875C48.3836 27.875 45.7844 26.7984 43.868 24.882C41.9516 22.9656 40.875 20.3664 40.875 17.6562V10.8438ZM57.9062 21.0625C58.8096 21.0625 59.676 20.7036 60.3148 20.0648C60.9536 19.426 61.3125 18.5596 61.3125 17.6562V10.8438C61.3125 9.94036 60.9536 9.07396 60.3148 8.43517C59.676 7.79637 58.8096 7.4375 57.9062 7.4375H51.0938C50.1904 7.4375 49.324 7.79637 48.6852 8.43517C48.0464 9.07396 47.6875 9.94036 47.6875 10.8438V17.6562C47.6875 18.5596 48.0464 19.426 48.6852 20.0648C49.324 20.7036 50.1904 21.0625 51.0938 21.0625H57.9062ZM0 65.3438C0 62.6336 1.07662 60.0344 2.993 58.118C4.90939 56.2016 7.50857 55.125 10.2188 55.125H17.0312C19.7414 55.125 22.3406 56.2016 24.257 58.118C26.1734 60.0344 27.25 62.6336 27.25 65.3438V72.1562C27.25 74.8664 26.1734 77.4656 24.257 79.382C22.3406 81.2984 19.7414 82.375 17.0312 82.375H10.2188C7.50857 82.375 4.90939 81.2984 2.993 79.382C1.07662 77.4656 0 74.8664 0 72.1562L0 65.3438ZM10.2188 61.9375C9.31536 61.9375 8.44896 62.2964 7.81017 62.9352C7.17137 63.574 6.8125 64.4404 6.8125 65.3438V72.1562C6.8125 73.0596 7.17137 73.926 7.81017 74.5648C8.44896 75.2036 9.31536 75.5625 10.2188 75.5625H17.0312C17.9346 75.5625 18.801 75.2036 19.4398 74.5648C20.0786 73.926 20.4375 73.0596 20.4375 72.1562V65.3438C20.4375 64.4404 20.0786 63.574 19.4398 62.9352C18.801 62.2964 17.9346 61.9375 17.0312 61.9375H10.2188ZM40.875 65.3438C40.875 62.6336 41.9516 60.0344 43.868 58.118C45.7844 56.2016 48.3836 55.125 51.0938 55.125H57.9062C60.6164 55.125 63.2156 56.2016 65.132 58.118C67.0484 60.0344 68.125 62.6336 68.125 65.3438V72.1562C68.125 74.8664 67.0484 77.4656 65.132 79.382C63.2156 81.2984 60.6164 82.375 57.9062 82.375H51.0938C48.3836 82.375 45.7844 81.2984 43.868 79.382C41.9516 77.4656 40.875 74.8664 40.875 72.1562V65.3438ZM51.0938 61.9375C50.1904 61.9375 49.324 62.2964 48.6852 62.9352C48.0464 63.574 47.6875 64.4404 47.6875 65.3438V72.1562C47.6875 73.0596 48.0464 73.926 48.6852 74.5648C49.324 75.2036 50.1904 75.5625 51.0938 75.5625H57.9062C58.8096 75.5625 59.676 75.2036 60.3148 74.5648C60.9536 73.926 61.3125 73.0596 61.3125 72.1562V65.3438C61.3125 64.4404 60.9536 63.574 60.3148 62.9352C59.676 62.2964 58.8096 61.9375 57.9062 61.9375H51.0938ZM81.75 65.3438C81.75 62.6336 82.8266 60.0344 84.743 58.118C86.6594 56.2016 89.2586 55.125 91.9688 55.125H98.7812C101.491 55.125 104.091 56.2016 106.007 58.118C107.923 60.0344 109 62.6336 109 65.3438V72.1562C109 74.8664 107.923 77.4656 106.007 79.382C104.091 81.2984 101.491 82.375 98.7812 82.375H91.9688C89.2586 82.375 86.6594 81.2984 84.743 79.382C82.8266 77.4656 81.75 74.8664 81.75 72.1562V65.3438ZM91.9688 61.9375C91.0654 61.9375 90.199 62.2964 89.5602 62.9352C88.9214 63.574 88.5625 64.4404 88.5625 65.3438V72.1562C88.5625 73.0596 88.9214 73.926 89.5602 74.5648C90.199 75.2036 91.0654 75.5625 91.9688 75.5625H98.7812C99.6846 75.5625 100.551 75.2036 101.19 74.5648C101.829 73.926 102.188 73.0596 102.188 72.1562V65.3438C102.188 64.4404 101.829 63.574 101.19 62.9352C100.551 62.2964 99.6846 61.9375 98.7812 61.9375H91.9688Z" fill="#5575E8"/>
</svg>
