<svg width="38" height="38" viewBox="0 0 38 38" fill="none" xmlns="http://www.w3.org/2000/svg">
<path d="M14.25 19C16.1397 19 17.9519 18.2493 19.2881 16.9131C20.6243 15.5769 21.375 13.7647 21.375 11.875C21.375 9.98533 20.6243 8.17306 19.2881 6.83686C17.9519 5.50067 16.1397 4.75 14.25 4.75C12.3603 4.75 10.5481 5.50067 9.21186 6.83686C7.87567 8.17306 7.125 9.98533 7.125 11.875C7.125 13.7647 7.87567 15.5769 9.21186 16.9131C10.5481 18.2493 12.3603 19 14.25 19ZM19 11.875C19 13.1348 18.4996 14.343 17.6088 15.2338C16.718 16.1246 15.5098 16.625 14.25 16.625C12.9902 16.625 11.782 16.1246 10.8912 15.2338C10.0004 14.343 9.5 13.1348 9.5 11.875C9.5 10.6152 10.0004 9.40704 10.8912 8.51624C11.782 7.62544 12.9902 7.125 14.25 7.125C15.5098 7.125 16.718 7.62544 17.6088 8.51624C18.4996 9.40704 19 10.6152 19 11.875ZM28.5 30.875C28.5 33.25 26.125 33.25 26.125 33.25H2.375C2.375 33.25 0 33.25 0 30.875C0 28.5 2.375 21.375 14.25 21.375C26.125 21.375 28.5 28.5 28.5 30.875ZM26.125 30.8655C26.1226 30.2812 25.7593 28.5238 24.149 26.9135C22.6005 25.365 19.6864 23.75 14.25 23.75C8.81125 23.75 5.8995 25.365 4.351 26.9135C2.74075 28.5238 2.37975 30.2812 2.375 30.8655H26.125Z" fill="#17B126"/>
<path fill-rule="evenodd" clip-rule="evenodd" d="M32.0625 11.875C32.3774 11.875 32.6795 12.0001 32.9022 12.2228C33.1249 12.4455 33.25 12.7476 33.25 13.0625V16.625H36.8125C37.1274 16.625 37.4295 16.7501 37.6522 16.9728C37.8749 17.1955 38 17.4976 38 17.8125C38 18.1274 37.8749 18.4295 37.6522 18.6522C37.4295 18.8749 37.1274 19 36.8125 19H33.25V22.5625C33.25 22.8774 33.1249 23.1795 32.9022 23.4022C32.6795 23.6249 32.3774 23.75 32.0625 23.75C31.7476 23.75 31.4455 23.6249 31.2228 23.4022C31.0001 23.1795 30.875 22.8774 30.875 22.5625V19H27.3125C26.9976 19 26.6955 18.8749 26.4728 18.6522C26.2501 18.4295 26.125 18.1274 26.125 17.8125C26.125 17.4976 26.2501 17.1955 26.4728 16.9728C26.6955 16.7501 26.9976 16.625 27.3125 16.625H30.875V13.0625C30.875 12.7476 31.0001 12.4455 31.2228 12.2228C31.4455 12.0001 31.7476 11.875 32.0625 11.875Z" fill="#17B126"/>
</svg>
