<svg width="38" height="38" viewBox="0 0 38 38" fill="none" xmlns="http://www.w3.org/2000/svg">
<g clip-path="url(#clip0_839_1486)">
<path d="M19 35.625C14.5908 35.625 10.3621 33.8734 7.24435 30.7556C4.12656 27.6379 2.375 23.4092 2.375 19C2.375 14.5908 4.12656 10.3621 7.24435 7.24435C10.3621 4.12656 14.5908 2.375 19 2.375C23.4092 2.375 27.6379 4.12656 30.7556 7.24435C33.8734 10.3621 35.625 14.5908 35.625 19C35.625 23.4092 33.8734 27.6379 30.7556 30.7556C27.6379 33.8734 23.4092 35.625 19 35.625ZM19 38C24.0391 38 28.8718 35.9982 32.435 32.435C35.9982 28.8718 38 24.0391 38 19C38 13.9609 35.9982 9.12816 32.435 5.56497C28.8718 2.00178 24.0391 0 19 0C13.9609 0 9.12816 2.00178 5.56497 5.56497C2.00178 9.12816 0 13.9609 0 19C0 24.0391 2.00178 28.8718 5.56497 32.435C9.12816 35.9982 13.9609 38 19 38Z" fill="#E65555"/>
<path d="M11.0344 11.0344C11.1447 10.9238 11.2758 10.8361 11.42 10.7762C11.5643 10.7164 11.719 10.6855 11.8752 10.6855C12.0314 10.6855 12.186 10.7164 12.3303 10.7762C12.4746 10.8361 12.6056 10.9238 12.7159 11.0344L19.0002 17.321L25.2844 11.0344C25.3948 10.924 25.5259 10.8364 25.6702 10.7767C25.8144 10.7169 25.969 10.6862 26.1252 10.6862C26.2813 10.6862 26.4359 10.7169 26.5802 10.7767C26.7244 10.8364 26.8555 10.924 26.9659 11.0344C27.0763 11.1448 27.1639 11.2759 27.2237 11.4202C27.2834 11.5644 27.3142 11.719 27.3142 11.8752C27.3142 12.0313 27.2834 12.1859 27.2237 12.3302C27.1639 12.4744 27.0763 12.6055 26.9659 12.7159L20.6793 19.0002L26.9659 25.2844C27.0763 25.3948 27.1639 25.5259 27.2237 25.6702C27.2834 25.8144 27.3142 25.969 27.3142 26.1252C27.3142 26.2813 27.2834 26.4359 27.2237 26.5802C27.1639 26.7244 27.0763 26.8555 26.9659 26.9659C26.8555 27.0763 26.7244 27.1639 26.5802 27.2237C26.4359 27.2834 26.2813 27.3142 26.1252 27.3142C25.969 27.3142 25.8144 27.2834 25.6702 27.2237C25.5259 27.1639 25.3948 27.0763 25.2844 26.9659L19.0002 20.6793L12.7159 26.9659C12.6055 27.0763 12.4744 27.1639 12.3302 27.2237C12.1859 27.2834 12.0313 27.3142 11.8752 27.3142C11.719 27.3142 11.5644 27.2834 11.4202 27.2237C11.2759 27.1639 11.1448 27.0763 11.0344 26.9659C10.924 26.8555 10.8364 26.7244 10.7767 26.5802C10.7169 26.4359 10.6862 26.2813 10.6862 26.1252C10.6862 25.969 10.7169 25.8144 10.7767 25.6702C10.8364 25.5259 10.924 25.3948 11.0344 25.2844L17.321 19.0002L11.0344 12.7159C10.9238 12.6056 10.8361 12.4746 10.7762 12.3303C10.7164 12.186 10.6855 12.0314 10.6855 11.8752C10.6855 11.719 10.7164 11.5643 10.7762 11.42C10.8361 11.2758 10.9238 11.1447 11.0344 11.0344Z" fill="#E65555"/>
</g>
<defs>
<clipPath id="clip0_839_1486">
<rect width="38" height="38" fill="white"/>
</clipPath>
</defs>
</svg>
