<svg width="15" height="15" viewBox="0 0 15 15" fill="none" xmlns="http://www.w3.org/2000/svg">
<path fill-rule="evenodd" clip-rule="evenodd" d="M7.50007 1.56281C5.65707 1.56281 4.00882 2.40237 2.91988 3.72168C2.87126 3.78471 2.81046 3.83731 2.7411 3.87637C2.67173 3.91542 2.59522 3.94013 2.51612 3.94902C2.43702 3.95792 2.35693 3.95081 2.28063 3.92814C2.20433 3.90546 2.13336 3.86767 2.07196 3.81702C2.01055 3.76636 1.95996 3.70388 1.92319 3.63328C1.88641 3.56268 1.86421 3.48541 1.8579 3.40606C1.85159 3.3267 1.8613 3.2469 1.88646 3.17137C1.91161 3.09585 1.95169 3.02615 2.00432 2.96643C2.8738 1.91375 4.02733 1.13295 5.32773 0.716898C6.62813 0.300851 8.02067 0.267066 9.33972 0.619563C10.6588 0.972059 11.8488 1.696 12.7683 2.70529C13.6878 3.71457 14.2981 4.96672 14.5265 6.31281H13.3188C13.0447 4.97189 12.3158 3.7668 11.2556 2.90129C10.1953 2.03579 8.86873 1.56297 7.50007 1.56281ZM1.68132 8.68781C1.90613 9.7858 2.43699 10.7978 3.21258 11.6069C3.98816 12.4159 4.97682 12.989 6.06434 13.26C7.15186 13.531 8.29385 13.4888 9.35838 13.1382C10.4229 12.7877 11.3665 12.1431 12.0803 11.2789C12.1289 11.2159 12.1897 11.1633 12.259 11.1243C12.3284 11.0852 12.4049 11.0605 12.484 11.0516C12.5631 11.0427 12.6432 11.0498 12.7195 11.0725C12.7958 11.0952 12.8668 11.1329 12.9282 11.1836C12.9896 11.2343 13.0402 11.2967 13.077 11.3673C13.1137 11.4379 13.1359 11.5152 13.1422 11.5946C13.1486 11.6739 13.1388 11.7537 13.1137 11.8292C13.0885 11.9048 13.0485 11.9745 12.9958 12.0342C12.1263 13.0869 10.9728 13.8677 9.67241 14.2837C8.37201 14.6998 6.97947 14.7336 5.66043 14.3811C4.34138 14.0286 3.15133 13.3046 2.23183 12.2953C1.31233 11.286 0.70207 10.0339 0.473633 8.68781H1.68132Z" fill="#5575E8"/>
</svg>
