<svg width="19" height="19" viewBox="0 0 19 19" fill="none" xmlns="http://www.w3.org/2000/svg">
<path d="M13.6967 8.31213H18.3659C18.4223 8.31215 18.4776 8.32825 18.5252 8.35853C18.5728 8.3888 18.6107 8.43202 18.6347 8.4831C18.6586 8.53419 18.6675 8.59104 18.6602 8.64698C18.653 8.70293 18.63 8.75566 18.5939 8.79901L16.2593 11.6015C16.2314 11.6349 16.1966 11.6618 16.1572 11.6802C16.1178 11.6987 16.0748 11.7082 16.0313 11.7082C15.9878 11.7082 15.9448 11.6987 15.9054 11.6802C15.866 11.6618 15.8312 11.6349 15.8033 11.6015L13.4687 8.79901C13.4326 8.75566 13.4096 8.70293 13.4023 8.64698C13.3951 8.59104 13.404 8.53419 13.4279 8.4831C13.4518 8.43202 13.4898 8.3888 13.5374 8.35853C13.585 8.32825 13.6403 8.31215 13.6967 8.31213ZM0.634166 10.6871H5.30342C5.35983 10.6871 5.41507 10.671 5.46266 10.6407C5.51026 10.6105 5.54824 10.5672 5.57216 10.5162C5.59609 10.4651 5.60496 10.4082 5.59774 10.3523C5.59053 10.2963 5.56752 10.2436 5.53142 10.2003L3.19679 7.39776C3.16893 7.36435 3.13407 7.33747 3.09467 7.31902C3.05527 7.30058 3.0123 7.29102 2.96879 7.29102C2.92529 7.29102 2.88232 7.30058 2.84292 7.31902C2.80352 7.33747 2.76865 7.36435 2.74079 7.39776L0.406166 10.2003C0.370064 10.2436 0.347057 10.2963 0.339841 10.3523C0.332626 10.4082 0.341499 10.4651 0.365422 10.5162C0.389346 10.5672 0.427329 10.6105 0.474924 10.6407C0.522519 10.671 0.577756 10.6871 0.634166 10.6871Z" fill="#5575E8"/>
<path fill-rule="evenodd" clip-rule="evenodd" d="M9.50007 3.56281C7.65707 3.56281 6.00882 4.40237 4.91988 5.72168C4.87126 5.78471 4.81046 5.83731 4.7411 5.87637C4.67173 5.91542 4.59522 5.94013 4.51612 5.94902C4.43702 5.95792 4.35693 5.95081 4.28063 5.92814C4.20433 5.90546 4.13336 5.86767 4.07196 5.81702C4.01055 5.76636 3.95996 5.70388 3.92319 5.63328C3.88641 5.56268 3.86421 5.48541 3.8579 5.40606C3.85159 5.3267 3.8613 5.2469 3.88646 5.17137C3.91161 5.09585 3.95169 5.02615 4.00432 4.96643C4.8738 3.91375 6.02733 3.13295 7.32773 2.7169C8.62813 2.30085 10.0207 2.26707 11.3397 2.61956C12.6588 2.97206 13.8488 3.696 14.7683 4.70529C15.6878 5.71457 16.2981 6.96672 16.5265 8.31281H15.3188C15.0447 6.97189 14.3158 5.7668 13.2556 4.90129C12.1953 4.03579 10.8687 3.56297 9.50007 3.56281ZM3.68132 10.6878C3.90613 11.7858 4.43699 12.7978 5.21258 13.6069C5.98816 14.4159 6.97682 14.989 8.06434 15.26C9.15186 15.531 10.2938 15.4888 11.3584 15.1382C12.4229 14.7877 13.3665 14.1431 14.0803 13.2789C14.1289 13.2159 14.1897 13.1633 14.259 13.1243C14.3284 13.0852 14.4049 13.0605 14.484 13.0516C14.5631 13.0427 14.6432 13.0498 14.7195 13.0725C14.7958 13.0952 14.8668 13.1329 14.9282 13.1836C14.9896 13.2343 15.0402 13.2967 15.077 13.3673C15.1137 13.4379 15.1359 13.5152 15.1422 13.5946C15.1486 13.6739 15.1388 13.7537 15.1137 13.8292C15.0885 13.9048 15.0485 13.9745 14.9958 14.0342C14.1263 15.0869 12.9728 15.8677 11.6724 16.2837C10.372 16.6998 8.97947 16.7336 7.66043 16.3811C6.34138 16.0286 5.15133 15.3046 4.23183 14.2953C3.31233 13.286 2.70207 12.0339 2.47363 10.6878H3.68132Z" fill="#5575E8"/>
</svg>
