<svg width="38" height="38" viewBox="0 0 38 38" fill="none" xmlns="http://www.w3.org/2000/svg">
<path d="M32.0625 2.375C31.1177 2.375 30.2115 2.75033 29.5435 3.41843C28.8754 4.08653 28.5 4.99267 28.5 5.9375C28.5 6.88233 28.8754 7.78847 29.5435 8.45657C30.2115 9.12467 31.1177 9.5 32.0625 9.5C33.0074 9.5 33.9135 9.12467 34.5816 8.45657C35.2497 7.78847 35.625 6.88233 35.625 5.9375C35.625 4.99267 35.2497 4.08653 34.5816 3.41843C33.9135 2.75033 33.0074 2.375 32.0625 2.375ZM26.125 5.9375C26.1248 4.5444 26.6145 3.1956 27.5084 2.12708C28.4022 1.05855 29.6434 0.338351 31.0146 0.0924757C32.3858 -0.153399 33.7998 0.0907093 35.0093 0.782093C36.2187 1.47348 37.1465 2.56811 37.6304 3.87448C38.1142 5.18084 38.1233 6.61575 37.6561 7.92816C37.1889 9.24057 36.275 10.3469 35.0745 11.0536C33.874 11.7603 32.4631 12.0223 31.0889 11.7939C29.7147 11.5655 28.4645 10.8611 27.5571 9.804L11.6019 17.214C11.9687 18.3764 11.9687 19.6236 11.6019 20.786L27.5571 28.196C28.5163 27.0805 29.8553 26.3609 31.3149 26.1764C32.7744 25.992 34.2504 26.356 35.4568 27.1978C36.6633 28.0396 37.5143 29.2993 37.8449 30.7328C38.1754 32.1663 37.9621 33.6715 37.2462 34.9566C36.5302 36.2418 35.3627 37.2154 33.9698 37.6888C32.577 38.1622 31.058 38.1016 29.7072 37.5189C28.3564 36.9361 27.2701 35.8726 26.6587 34.5346C26.0474 33.1965 25.9545 31.6791 26.3981 30.2765L10.4429 22.8665C9.65305 23.787 8.60025 24.4435 7.42612 24.7477C6.25199 25.0519 5.01285 24.9893 3.8754 24.5681C2.73795 24.147 1.75675 23.3876 1.0638 22.3922C0.370849 21.3967 -0.000610352 20.2129 -0.000610352 19C-0.000610352 17.7871 0.370849 16.6033 1.0638 15.6078C1.75675 14.6124 2.73795 13.853 3.8754 13.4319C5.01285 13.0107 6.25199 12.9481 7.42612 13.2523C8.60025 13.5565 9.65305 14.213 10.4429 15.1335L26.3981 7.7235C26.2165 7.14559 26.1244 6.54328 26.125 5.9375ZM5.93752 15.4375C4.99269 15.4375 4.08655 15.8128 3.41845 16.4809C2.75035 17.149 2.37502 18.0552 2.37502 19C2.37502 19.9448 2.75035 20.851 3.41845 21.5191C4.08655 22.1872 4.99269 22.5625 5.93752 22.5625C6.88235 22.5625 7.78849 22.1872 8.45659 21.5191C9.12469 20.851 9.50002 19.9448 9.50002 19C9.50002 18.0552 9.12469 17.149 8.45659 16.4809C7.78849 15.8128 6.88235 15.4375 5.93752 15.4375ZM32.0625 28.5C31.1177 28.5 30.2115 28.8753 29.5435 29.5434C28.8754 30.2115 28.5 31.1177 28.5 32.0625C28.5 33.0073 28.8754 33.9135 29.5435 34.5816C30.2115 35.2497 31.1177 35.625 32.0625 35.625C33.0074 35.625 33.9135 35.2497 34.5816 34.5816C35.2497 33.9135 35.625 33.0073 35.625 32.0625C35.625 31.1177 35.2497 30.2115 34.5816 29.5434C33.9135 28.8753 33.0074 28.5 32.0625 28.5Z" fill="#161616"/>
</svg>
