<svg width="42" height="42" viewBox="0 0 42 42" fill="none" xmlns="http://www.w3.org/2000/svg">
<g clip-path="url(#clip0_52_2159)">
<path d="M21 39.375C16.1266 39.375 11.4529 37.4391 8.00691 33.9931C4.56093 30.5471 2.625 25.8734 2.625 21C2.625 16.1266 4.56093 11.4529 8.00691 8.00691C11.4529 4.56093 16.1266 2.625 21 2.625C25.8734 2.625 30.5471 4.56093 33.9931 8.00691C37.4391 11.4529 39.375 16.1266 39.375 21C39.375 25.8734 37.4391 30.5471 33.9931 33.9931C30.5471 37.4391 25.8734 39.375 21 39.375ZM21 42C26.5695 42 31.911 39.7875 35.8492 35.8492C39.7875 31.911 42 26.5695 42 21C42 15.4305 39.7875 10.089 35.8492 6.15076C31.911 2.21249 26.5695 0 21 0C15.4305 0 10.089 2.21249 6.15076 6.15076C2.21249 10.089 0 15.4305 0 21C0 26.5695 2.21249 31.911 6.15076 35.8492C10.089 39.7875 15.4305 42 21 42Z" fill="#5575E8"/>
<path d="M11.248 25.1134C11.5495 24.9393 11.9077 24.8922 12.2439 24.9823C12.5802 25.0723 12.8668 25.2923 13.0409 25.5937C13.847 26.9911 15.0071 28.1515 16.4044 28.9579C17.8016 29.7644 19.3866 30.1885 20.9999 30.1875C22.6131 30.1885 24.1982 29.7644 25.5954 28.9579C26.9926 28.1515 28.1527 26.9911 28.9589 25.5937C29.0444 25.4433 29.1589 25.3112 29.2957 25.2052C29.4325 25.0991 29.5889 25.0212 29.756 24.9758C29.923 24.9305 30.0974 24.9186 30.269 24.9409C30.4407 24.9632 30.6062 25.0193 30.7561 25.1058C30.906 25.1924 31.0373 25.3077 31.1425 25.4452C31.2476 25.5827 31.3245 25.7396 31.3688 25.907C31.413 26.0743 31.4237 26.2488 31.4003 26.4203C31.3768 26.5918 31.3197 26.7569 31.2321 26.9062C30.1956 28.7027 28.7041 30.1944 26.9079 31.2312C25.1116 32.268 23.0739 32.8134 20.9999 32.8125C18.9259 32.8134 16.8882 32.268 15.0919 31.2312C13.2956 30.1944 11.8042 28.7027 10.7676 26.9062C10.5936 26.6048 10.5464 26.2466 10.6365 25.9103C10.7266 25.5741 10.9466 25.2874 11.248 25.1134ZM18.3749 17.0625C18.3749 19.236 17.1989 21 15.7499 21C14.3009 21 13.1249 19.236 13.1249 17.0625C13.1249 14.889 14.3009 13.125 15.7499 13.125C17.1989 13.125 18.3749 14.889 18.3749 17.0625ZM28.8749 17.0625C28.8749 19.236 27.6989 21 26.2499 21C24.8009 21 23.6249 19.236 23.6249 17.0625C23.6249 14.889 24.8009 13.125 26.2499 13.125C27.6989 13.125 28.8749 14.889 28.8749 17.0625Z" fill="#5575E8"/>
</g>
<rect x="0.5" y="0.5" width="41" height="41" stroke="#5575E8"/>
<defs>
<clipPath id="clip0_52_2159">
<rect width="42" height="42" fill="white"/>
</clipPath>
</defs>
</svg>
