<?xml version="1.0" encoding="UTF-8" standalone="no"?>
<svg
   width="30"
   height="37"
   viewBox="0 0 30 37"
   fill="none"
   version="1.1"
   id="svg4"
   sodipodi:docname="unlike.svg"
   inkscape:version="1.1.1 (3bf5ae0d25, 2021-09-20)"
   xmlns:inkscape="http://www.inkscape.org/namespaces/inkscape"
   xmlns:sodipodi="http://sodipodi.sourceforge.net/DTD/sodipodi-0.dtd"
   xmlns="http://www.w3.org/2000/svg"
   xmlns:svg="http://www.w3.org/2000/svg">
  <defs
     id="defs8" />
  <sodipodi:namedview
     id="namedview6"
     pagecolor="#ffffff"
     bordercolor="#666666"
     borderopacity="1.0"
     inkscape:pageshadow="2"
     inkscape:pageopacity="0.0"
     inkscape:pagecheckerboard="0"
     showgrid="false"
     inkscape:zoom="19.432432"
     inkscape:cx="15.000695"
     inkscape:cy="18.5"
     inkscape:window-width="1920"
     inkscape:window-height="1001"
     inkscape:window-x="-9"
     inkscape:window-y="-9"
     inkscape:window-maximized="1"
     inkscape:current-layer="svg4" />
  <path
     d="M 13.183549,36.267508 C 11.434467,36.711734 9.811579,35.371694 9.6925841,33.639215 9.5608511,31.695749 9.2718296,29.909563 8.909544,28.845263 8.6808112,28.178925 8.0331515,26.972073 7.0067336,25.813405 5.9876342,24.658419 4.6611577,23.631178 3.1077998,23.203601 1.8782915,22.863028 0.625,21.785762 0.625,20.212484 v -7.403756 c 0,-1.564042 1.2478006,-2.709775 2.6492976,-2.8615478 C 5.2320008,9.7380181 6.1358318,9.1790386 7.0579631,8.6089494 l 0.087822,-0.053675 C 7.6434432,8.2480143 8.2033284,7.909292 8.9205416,7.6594157 9.6468534,7.4039861 10.4958,7.255911 11.602753,7.255911 h 6.403728 c 1.714349,0 2.925502,0.8847448 3.538437,1.969399 0.300098,0.5312215 0.464744,1.123522 0.464744,1.689905 0,0.281343 -0.04209,0.577493 -0.140911,0.858836 0.367824,0.48495 0.695298,1.067998 0.892858,1.665845 0.201278,0.610814 0.314735,1.41042 0.0074,2.128552 0.126194,0.240682 0.219555,0.496091 0.29092,0.745978 0.140832,0.499774 0.206738,1.049493 0.206738,1.584404 0,0.534911 -0.06591,1.08463 -0.206738,1.584404 -0.06409,0.222112 -0.14637,0.451589 -0.252548,0.671861 0.720932,1.056856 0.764843,2.221126 0.428192,3.207707 -0.376923,1.095756 -1.247864,2.035993 -2.19555,2.354394 -1.549703,0.523786 -3.298865,0.510819 -4.603378,0.390518 -0.270824,-0.02465 -0.541015,-0.05555 -0.810494,-0.09253 0.635088,2.750356 0.596161,5.616049 -0.113457,8.347755 -0.252468,0.940237 -1.006313,1.569596 -1.851541,1.784265 z M 18.006481,9.1068499 h -6.403728 c -0.933129,0 -1.578977,0.1258639 -2.0857338,0.3017051 -0.514194,0.1795391 -0.9258498,0.423863 -1.4197893,0.727417 l -0.073225,0.04627 c -1.0154441,0.625622 -2.1918873,1.35119 -4.5557713,1.606615 -0.6092633,0.06479 -1.0136086,0.536777 -1.0136086,1.018021 v 7.405605 c 0,0.471999 0.4134914,1.00507 1.1343678,1.20309 2.0034419,0.555322 3.6171676,1.845416 4.7826212,3.163285 1.1618616,1.314186 1.946722,2.730105 2.265096,3.659296 0.44457,1.295697 0.744668,3.27246 0.88186,5.275156 0.04573,0.6701 0.658665,1.101359 1.22041,0.958806 l 0.479302,-0.120301 c 0.29274,-0.07404 0.472103,-0.266535 0.526932,-0.471999 0.747595,-2.880661 0.655422,-5.918603 -0.265285,-8.747558 -0.05166,-0.157199 -0.06068,-0.325525 -0.02603,-0.487447 0.03458,-0.161922 0.111479,-0.311518 0.22272,-0.4331 0.111162,-0.121581 0.252627,-0.210746 0.40952,-0.258131 0.156893,-0.04746 0.323517,-0.05139 0.482467,-0.01144 h 0.0055 l 0.02563,0.0074 0.106098,0.02409 c 0.625673,0.134388 1.258545,0.231397 1.895532,0.290627 1.212972,0.111016 2.665754,0.09989 3.86045,-0.301753 0.320195,-0.109175 0.823312,-0.557083 1.042867,-1.204931 0.195819,-0.570129 0.159187,-1.240149 -0.486661,-1.889839 l -0.645847,-0.655212 0.645847,-0.655213 c 0.07872,-0.0778 0.192101,-0.259171 0.281822,-0.583096 0.08782,-0.309116 0.137192,-0.684827 0.137192,-1.075345 0,-0.390598 -0.04937,-0.766309 -0.137192,-1.075426 -0.09154,-0.322083 -0.203098,-0.505296 -0.281822,-0.583015 L 20.372138,15.585096 21.017985,14.9299 c 0.086,-0.08699 0.199459,-0.325765 0.0092,-0.903258 -0.198509,-0.557547 -0.513719,-1.065165 -0.923951,-1.488147 l -0.645848,-0.655237 0.645848,-0.655236 c 0.01092,-0.0093 0.07501,-0.09254 0.07501,-0.314656 -0.0085,-0.270865 -0.08458,-0.535143 -0.221375,-0.768141 C 19.653105,9.6103053 19.036531,9.1068499 18.006481,9.1068499 Z"
     fill="#e65555"
     id="path2"
     style="stroke-width:0.795784" />
</svg>
