<svg width="40" height="40" viewBox="0 0 40 40" fill="none" xmlns="http://www.w3.org/2000/svg">
<path d="M39.6349 0.364886C39.808 0.538216 39.9263 0.758572 39.9752 0.998579C40.0241 1.23859 40.0014 1.48767 39.91 1.71489L25.3625 38.0824C25.2343 38.4027 25.0202 38.6814 24.7438 38.8878C24.4674 39.0943 24.1394 39.2204 23.7959 39.2525C23.4524 39.2845 23.1068 39.2212 22.7969 39.0695C22.4871 38.9177 22.2252 38.6834 22.04 38.3924L14.095 25.9049L1.60745 17.9599C1.31575 17.7748 1.08083 17.5128 0.928626 17.2027C0.776422 16.8926 0.712846 16.5465 0.744914 16.2025C0.776982 15.8586 0.903446 15.5302 1.11035 15.2535C1.31726 14.9769 1.59657 14.7628 1.91745 14.6349L38.285 0.0923861C38.5122 0.000916786 38.7612 -0.0217825 39.0013 0.0271079C39.2413 0.0759984 39.4616 0.194324 39.6349 0.367386V0.364886ZM16.59 25.1749L23.4925 36.0199L35.325 6.43989L16.59 25.1749ZM33.5574 4.67239L3.97745 16.5049L14.825 23.4049L33.56 4.67239H33.5574Z" fill="white"/>
</svg>
