<svg width="11" height="19" viewBox="0 0 11 19" fill="none" xmlns="http://www.w3.org/2000/svg">
<path d="M9.64645 18.3536C9.84171 18.5488 10.1583 18.5488 10.3536 18.3536C10.5488 18.1583 10.5488 17.8417 10.3536 17.6464L9.64645 18.3536ZM1.5 9.5L1.14645 9.14645L0.792893 9.5L1.14645 9.85355L1.5 9.5ZM10.3536 1.35355C10.5488 1.15829 10.5488 0.841709 10.3536 0.646446C10.1583 0.451185 9.84171 0.451185 9.64645 0.646446L10.3536 1.35355ZM10.3536 17.6464L1.85355 9.14645L1.14645 9.85355L9.64645 18.3536L10.3536 17.6464ZM1.85355 9.85355L10.3536 1.35355L9.64645 0.646446L1.14645 9.14645L1.85355 9.85355Z" fill="white"/>
</svg>
