<svg width="11" height="19" viewBox="0 0 11 19" fill="none" xmlns="http://www.w3.org/2000/svg">
<path d="M1.35355 0.646447C1.15829 0.451184 0.841709 0.451184 0.646447 0.646447C0.451184 0.841709 0.451184 1.15829 0.646447 1.35355L1.35355 0.646447ZM9.5 9.5L9.85355 9.85355L10.2071 9.5L9.85355 9.14645L9.5 9.5ZM0.646447 17.6464C0.451184 17.8417 0.451184 18.1583 0.646447 18.3536C0.841709 18.5488 1.15829 18.5488 1.35355 18.3536L0.646447 17.6464ZM0.646447 1.35355L9.14645 9.85355L9.85355 9.14645L1.35355 0.646447L0.646447 1.35355ZM9.14645 9.14645L0.646447 17.6464L1.35355 18.3536L9.85355 9.85355L9.14645 9.14645Z" fill="white"/>
</svg>
