<svg width="34" height="34" viewBox="0 0 34 34" fill="none" xmlns="http://www.w3.org/2000/svg">
<g clip-path="url(#clip0_121_5514)">
<path d="M17 31.875C13.0549 31.875 9.27139 30.3078 6.48179 27.5182C3.69218 24.7286 2.125 20.9451 2.125 17C2.125 13.0549 3.69218 9.27139 6.48179 6.48179C9.27139 3.69218 13.0549 2.125 17 2.125C20.9451 2.125 24.7286 3.69218 27.5182 6.48179C30.3078 9.27139 31.875 13.0549 31.875 17C31.875 20.9451 30.3078 24.7286 27.5182 27.5182C24.7286 30.3078 20.9451 31.875 17 31.875ZM17 34C21.5087 34 25.8327 32.2089 29.0208 29.0208C32.2089 25.8327 34 21.5087 34 17C34 12.4913 32.2089 8.1673 29.0208 4.97919C25.8327 1.79107 21.5087 0 17 0C12.4913 0 8.1673 1.79107 4.97919 4.97919C1.79107 8.1673 0 12.4913 0 17C0 21.5087 1.79107 25.8327 4.97919 29.0208C8.1673 32.2089 12.4913 34 17 34Z" fill="#17B126"/>
<path d="M23.3112 10.5615C23.2961 10.5761 23.2819 10.5918 23.2687 10.6082L15.8886 20.0114L11.441 15.5616C11.1389 15.2801 10.7393 15.1268 10.3264 15.1341C9.91349 15.1414 9.51954 15.3087 9.22754 15.6007C8.93554 15.8927 8.76828 16.2866 8.76099 16.6995C8.75371 17.1124 8.90697 17.512 9.18849 17.8141L14.8112 23.439C14.9627 23.5902 15.1431 23.7093 15.3416 23.7893C15.5401 23.8693 15.7527 23.9084 15.9667 23.9045C16.1807 23.9005 16.3917 23.8535 16.5871 23.7662C16.7825 23.6789 16.9583 23.5532 17.1041 23.3965L25.5871 12.7927C25.876 12.4896 26.0339 12.0849 26.0268 11.6662C26.0196 11.2475 25.848 10.8485 25.549 10.5553C25.25 10.2622 24.8476 10.0985 24.4288 10.0996C24.0101 10.1008 23.6086 10.2667 23.3112 10.5615Z" fill="#17B126"/>
</g>
<defs>
<clipPath id="clip0_121_5514">
<rect width="34" height="34" fill="white"/>
</clipPath>
</defs>
</svg>
