<svg width="100" height="100" viewBox="0 0 100 100" fill="none" xmlns="http://www.w3.org/2000/svg">
<g clip-path="url(#clip0_333_25980)">
<path d="M16.6126 68.9123C17.398 69.1747 18.0471 69.738 18.4174 70.4786C18.7877 71.2192 18.8489 72.0765 18.5876 72.8623L15.4626 82.2373C15.3449 82.6408 15.147 83.0165 14.8807 83.3417C14.6145 83.667 14.2853 83.9352 13.913 84.1303C13.5406 84.3254 13.1327 84.4434 12.7137 84.4772C12.2947 84.5109 11.8732 84.4598 11.4744 84.3269C11.0756 84.194 10.7078 83.9819 10.3928 83.7035C10.0779 83.4251 9.82235 83.086 9.64152 82.7065C9.4607 82.327 9.3583 81.915 9.34045 81.495C9.32259 81.075 9.38966 80.6557 9.53763 80.2623L12.6626 70.8873C12.925 70.1019 13.4884 69.4528 14.229 69.0825C14.9696 68.7122 15.8269 68.651 16.6126 68.9123ZM75.9876 68.9123C76.773 69.1747 77.4221 69.738 77.7924 70.4786C78.1627 71.2192 78.2239 72.0765 77.9626 72.8623L74.8376 82.2373C74.7199 82.6408 74.522 83.0165 74.2557 83.3417C73.9895 83.667 73.6603 83.9352 73.288 84.1303C72.9156 84.3254 72.5077 84.4434 72.0887 84.4772C71.6697 84.5109 71.2482 84.4598 70.8494 84.3269C70.4506 84.194 70.0827 83.9819 69.7678 83.7035C69.4529 83.4251 69.1973 83.086 69.0165 82.7065C68.8357 82.327 68.7333 81.915 68.7154 81.495C68.6976 81.075 68.7647 80.6557 68.9126 80.2623L72.0376 70.8873C72.3 70.1019 72.8634 69.4528 73.604 69.0825C74.3446 68.7122 75.2019 68.651 75.9876 68.9123ZM29.1126 78.2873C29.898 78.5497 30.5471 79.113 30.9174 79.8536C31.2877 80.5942 31.3489 81.4515 31.0876 82.2373L27.9626 91.6123C27.8449 92.0158 27.647 92.3915 27.3807 92.7167C27.1145 93.042 26.7853 93.3102 26.413 93.5053C26.0406 93.7004 25.6327 93.8184 25.2137 93.8522C24.7947 93.8859 24.3732 93.8348 23.9744 93.7019C23.5756 93.569 23.2077 93.3569 22.8928 93.0785C22.5779 92.8001 22.3223 92.461 22.1415 92.0815C21.9607 91.702 21.8583 91.29 21.8404 90.87C21.8226 90.45 21.8897 90.0307 22.0376 89.6373L25.1626 80.2623C25.425 79.4769 25.9884 78.8278 26.729 78.4575C27.4696 78.0872 28.3269 78.026 29.1126 78.2873ZM88.4876 78.2873C89.273 78.5497 89.9221 79.113 90.2924 79.8536C90.6627 80.5942 90.7239 81.4515 90.4626 82.2373L87.3376 91.6123C87.2199 92.0158 87.022 92.3915 86.7557 92.7167C86.4895 93.042 86.1603 93.3102 85.788 93.5053C85.4156 93.7004 85.0077 93.8184 84.5887 93.8522C84.1697 93.8859 83.7482 93.8348 83.3494 93.7019C82.9506 93.569 82.5827 93.3569 82.2678 93.0785C81.9529 92.8001 81.6973 92.461 81.5165 92.0815C81.3357 91.702 81.2333 91.29 81.2154 90.87C81.1976 90.45 81.2647 90.0307 81.4126 89.6373L84.5376 80.2623C84.8 79.4769 85.3634 78.8278 86.104 78.4575C86.8446 78.0872 87.7019 78.026 88.4876 78.2873ZM83.7814 25.1685C82.4835 18.6258 79.1265 12.6698 74.2014 8.1715C69.2762 3.67318 63.0412 0.868422 56.4079 0.167315C49.7746 -0.533792 43.091 0.905525 37.3343 4.27482C31.5775 7.64412 27.0497 12.7667 24.4126 18.8935C21.4554 18.5528 18.4597 18.8193 15.609 19.6767C12.7583 20.534 10.1126 21.9642 7.83386 23.8796C5.55512 25.795 3.6913 28.1554 2.35651 30.8162C1.02172 33.477 0.244056 36.3822 0.0711241 39.354C-0.101808 42.3258 0.333632 45.3016 1.35079 48.0993C2.36794 50.8969 3.9454 53.4576 5.98659 55.6243C8.02778 57.7911 10.4897 59.5185 13.2218 60.7007C15.9538 61.883 18.8983 62.4951 21.8751 62.4998H81.2501C86.0071 62.5052 90.5882 60.7024 94.0657 57.4565C97.5431 54.2105 99.6568 49.7642 99.9786 45.0182C100.3 40.2722 98.8063 35.5812 95.7988 31.8956C92.7914 28.21 88.4955 25.8053 83.7814 25.1685ZM53.1251 6.24976C59.2749 6.24849 65.2093 8.51394 69.7937 12.613C74.3782 16.712 77.291 22.357 77.9751 28.4685C78.0601 29.2364 78.4265 29.9456 79.0036 30.4592C79.5807 30.9728 80.3276 31.2544 81.1001 31.2498H81.2501C84.5653 31.2498 87.7448 32.5667 90.089 34.9109C92.4332 37.2551 93.7501 40.4346 93.7501 43.7498C93.7501 47.065 92.4332 50.2444 90.089 52.5886C87.7448 54.9328 84.5653 56.2498 81.2501 56.2498H21.8751C19.6631 56.2487 17.4765 55.7779 15.46 54.8686C13.4435 53.9593 11.643 52.6322 10.1777 50.9751C8.71242 49.318 7.61567 47.3686 6.96002 45.256C6.30437 43.1434 6.10477 40.9156 6.37442 38.72C6.64408 36.5245 7.37683 34.4112 8.52422 32.52C9.67161 30.6289 11.2075 29.0028 13.0302 27.7496C14.853 26.4963 16.9211 25.6443 19.0977 25.25C21.2743 24.8557 23.5098 24.928 25.6564 25.4623C26.4222 25.6533 27.2319 25.5474 27.9229 25.166C28.6139 24.7846 29.1349 24.1558 29.3814 23.406C31.0331 18.4133 34.2165 14.0683 38.479 10.9884C42.7415 7.90847 47.8663 6.25038 53.1251 6.24976ZM44.0814 70.4748C44.3412 69.9563 44.7401 69.5204 45.2334 69.2158C45.7268 68.9111 46.2953 68.7498 46.8751 68.7498H53.1251C53.62 68.7501 54.1078 68.868 54.5482 69.0938C54.9886 69.3195 55.3691 69.6466 55.6584 70.0482C55.9476 70.4498 56.1374 70.9143 56.212 71.4035C56.2866 71.8928 56.244 72.3927 56.0876 72.8623L54.3376 78.1248H59.3751C59.9632 78.1256 60.539 78.2923 61.0365 78.6058C61.534 78.9193 61.933 79.3667 62.1876 79.8968C62.4422 80.4269 62.5421 81.018 62.4757 81.6023C62.4094 82.1866 62.1796 82.7403 61.8126 83.1998L49.3126 98.8248C48.8666 99.3788 48.245 99.7641 47.5504 99.9171C46.8558 100.07 46.1298 99.9814 45.4924 99.666C44.8549 99.3505 44.3441 98.8271 44.0444 98.1821C43.7447 97.5371 43.6739 96.8091 43.8439 96.1185L46.0001 87.4998H40.6251C40.0922 87.4997 39.5682 87.3634 39.1028 87.1038C38.6374 86.8442 38.2462 86.4699 37.9662 86.0165C37.6862 85.563 37.5269 85.0455 37.5033 84.5131C37.4797 83.9808 37.5926 83.4512 37.8314 82.9748L44.0814 70.4748Z" fill="#5575E8"/>
</g>
<defs>
<clipPath id="clip0_333_25980">
<rect width="100" height="100" fill="white"/>
</clipPath>
</defs>
</svg>
