<svg width="100" height="100" viewBox="0 0 100 100" fill="none" xmlns="http://www.w3.org/2000/svg">
<g clip-path="url(#clip0_333_25986)">
<path d="M50 93.75C38.3968 93.75 27.2688 89.1406 19.0641 80.9359C10.8594 72.7312 6.25 61.6032 6.25 50C6.25 38.3968 10.8594 27.2688 19.0641 19.0641C27.2688 10.8594 38.3968 6.25 50 6.25C61.6032 6.25 72.7312 10.8594 80.9359 19.0641C89.1406 27.2688 93.75 38.3968 93.75 50C93.75 61.6032 89.1406 72.7312 80.9359 80.9359C72.7312 89.1406 61.6032 93.75 50 93.75ZM50 100C63.2608 100 75.9785 94.7322 85.3553 85.3553C94.7322 75.9785 100 63.2608 100 50C100 36.7392 94.7322 24.0215 85.3553 14.6447C75.9785 5.26784 63.2608 0 50 0C36.7392 0 24.0215 5.26784 14.6447 14.6447C5.26784 24.0215 0 36.7392 0 50C0 63.2608 5.26784 75.9785 14.6447 85.3553C24.0215 94.7322 36.7392 100 50 100Z" fill="#5575E8"/>
<path d="M26.7812 59.7938C27.4989 59.3794 28.3519 59.2671 29.1524 59.4816C29.9529 59.6961 30.6355 60.2198 31.0499 60.9375C32.9694 64.2646 35.7315 67.0273 39.0582 68.9474C42.3849 70.8675 46.1588 71.8773 49.9999 71.875C53.841 71.8773 57.6149 70.8675 60.9416 68.9474C64.2683 67.0273 67.0305 64.2646 68.9499 60.9375C69.1536 60.5792 69.4262 60.2648 69.7519 60.0123C70.0776 59.7598 70.45 59.5742 70.8478 59.4662C71.2455 59.3582 71.6606 59.33 72.0693 59.3831C72.478 59.4362 72.8722 59.5697 73.2291 59.7757C73.586 59.9818 73.8986 60.2564 74.1489 60.5838C74.3993 60.9112 74.5824 61.2849 74.6877 61.6833C74.7931 62.0817 74.8186 62.4971 74.7627 62.9054C74.7069 63.3137 74.5708 63.707 74.3624 64.0625C71.8944 68.3397 68.3433 71.8914 64.0665 74.36C59.7897 76.8287 54.9381 78.1272 49.9999 78.125C45.0618 78.1272 40.2101 76.8287 35.9333 74.36C31.6565 71.8914 28.1054 68.3397 25.6374 64.0625C25.223 63.3447 25.1107 62.4918 25.3252 61.6913C25.5397 60.8907 26.0634 60.2082 26.7812 59.7938ZM43.7499 40.625C43.7499 45.8 40.9499 50 37.4999 50C34.0499 50 31.2499 45.8 31.2499 40.625C31.2499 35.45 34.0499 31.25 37.4999 31.25C40.9499 31.25 43.7499 35.45 43.7499 40.625ZM68.7499 40.625C68.7499 45.8 65.9499 50 62.4999 50C59.0499 50 56.2499 45.8 56.2499 40.625C56.2499 35.45 59.0499 31.25 62.4999 31.25C65.9499 31.25 68.7499 35.45 68.7499 40.625Z" fill="#5575E8"/>
</g>
<defs>
<clipPath id="clip0_333_25986">
<rect width="100" height="100" fill="white"/>
</clipPath>
</defs>
</svg>
