<svg width="530" height="711" viewBox="0 0 530 711" fill="none" xmlns="http://www.w3.org/2000/svg">
<g filter="url(#filter0_f_244_8850)">
<path d="M419.209 564.146C355.176 474.595 297.379 456.097 276.485 458.041C216.24 464.597 281.27 565.467 268.92 627.804C256.569 690.141 408.807 749.766 485.717 760.333C562.628 770.901 639.51 676.775 600.609 559.254C561.708 441.732 499.251 676.085 419.209 564.146Z" fill="#00A3FF"/>
<path d="M406.685 530.404C364.976 632.287 380.091 691.059 392.862 707.71C430.487 755.216 481.247 646.462 540.589 623.726C599.931 600.991 569.346 440.38 537.341 369.65C505.336 298.921 384.726 283.958 305.96 379.459C227.194 474.961 458.821 403.051 406.685 530.404Z" fill="#AD00FF"/>
<path d="M444.2 517.753C455.697 447.217 437.55 412.251 427.039 403.585C396.3 379.034 380.083 455.238 345.87 478.288C311.657 501.339 354.468 598.459 385.045 638.52C415.622 678.582 494.095 670.425 529.963 598.511C565.831 526.598 429.83 605.922 444.2 517.753Z" fill="#00FFF0"/>
<path d="M386.175 338.388C442.026 331.716 464.518 310.374 468.783 300.537C480.655 271.94 419.488 276.276 394.601 255.422C369.714 234.567 305.587 288.103 281.949 319.957C258.311 351.81 281.576 409.383 343.779 420.845C405.982 432.306 316.36 346.727 386.175 338.388Z" fill="#000AFF"/>
</g>
<defs>
<filter id="filter0_f_244_8850" x="0.485352" y="0.728027" width="860.559" height="1010.42" filterUnits="userSpaceOnUse" color-interpolation-filters="sRGB">
<feFlood flood-opacity="0" result="BackgroundImageFix"/>
<feBlend mode="normal" in="SourceGraphic" in2="BackgroundImageFix" result="shape"/>
<feGaussianBlur stdDeviation="125" result="effect1_foregroundBlur_244_8850"/>
</filter>
</defs>
</svg>
