<svg width="1004" height="893" viewBox="0 0 1004 893" fill="none" xmlns="http://www.w3.org/2000/svg">
<g filter="url(#filter0_f_1253_88314)">
<path d="M473.833 422.08C583.471 432.037 635.215 400.333 647.382 383.236C681.747 333.321 562.884 316.729 523.727 266.678C484.57 216.626 340.018 293.02 281.803 344.381C223.587 395.741 244.696 515.429 359.114 562.684C473.532 609.939 336.785 409.633 473.833 422.08Z" fill="#00A3FF"/>
<path d="M507.568 434.621C457.622 336.514 403.235 309.594 382.284 308.398C321.736 305.885 370.978 415.334 349.459 475.128C327.941 534.923 469.571 616.607 544.042 638.539C618.513 660.47 708.586 578.877 687.666 456.865C666.745 334.853 570.002 557.255 507.568 434.621Z" fill="#AD00FF"/>
<path d="M492.66 471.298C538.585 526.055 576.919 535.136 590.345 532.832C629.01 525.575 581.873 463.541 586.748 422.576C591.623 381.612 490.106 350.637 439.798 347.646C389.489 344.654 344.438 409.423 375.496 483.54C406.554 557.658 435.253 402.852 492.66 471.298Z" fill="#00FFF0"/>
<path d="M666.41 544.441C635.001 591.104 636.484 622.074 641.151 631.727C655.063 659.389 691.711 610.225 723.755 604.987C755.799 599.75 757.111 516.224 748.414 477.523C739.717 438.822 680.917 418.859 631.626 458.495C582.336 498.131 705.67 486.112 666.41 544.441Z" fill="#000AFF"/>
</g>
<defs>
<filter id="filter0_f_1253_88314" x="0.418945" y="0.366211" width="1002.59" height="891.735" filterUnits="userSpaceOnUse" color-interpolation-filters="sRGB">
<feFlood flood-opacity="0" result="BackgroundImageFix"/>
<feBlend mode="normal" in="SourceGraphic" in2="BackgroundImageFix" result="shape"/>
<feGaussianBlur stdDeviation="125" result="effect1_foregroundBlur_1253_88314"/>
</filter>
</defs>
</svg>
